<svg width="177" height="509" viewBox="0 0 177 509" fill="none" xmlns="http://www.w3.org/2000/svg">
<path d="M173.55 188.59V180.02C173.55 173.83 170.12 167.23 167.98 163.72C170.09 156.64 170.12 139.7 168.97 131.85C168.27 127.07 164.94 123.18 163.3 120.68C163.33 120.49 163.36 120.3 163.4 120.1C164.3 114.33 160.38 100.16 158.03 94.18C156.47 90.21 153.21 88.71 150.59 87.5C149.17 86.85 147.95 86.28 147.26 85.48C145.49 83.42 143.73 82.85 142.18 82.36C141.77 82.23 141.38 82.1 141 81.95C140.4 81.71 139.88 81.23 139.08 80.51C137.72 79.28 135.67 77.41 131.28 74.87C128.87 73.47 125.48 71.85 121.88 70.13C116 67.31 109.13 64.06 107.49 62.04C106 60.2 105.84 54.36 105.82 52.44C106.53 50.63 106.61 47.79 106.58 46.14C106.88 46.28 107.24 46.35 107.67 46.3C109.14 46.12 110.51 43.84 112.15 40.87C112.61 40.04 113.05 39.25 113.38 38.78C114.8 36.75 114.49 32.35 113.45 29.05C113.15 28.09 112.63 27.53 111.92 27.4C110.94 27.22 109.87 27.97 109.1 28.67C109.25 24.56 109.19 13.01 104.45 7.32003C100.37 2.42003 92.2 1.20003 89.1 0.910034H87.88C84.78 1.20003 76.62 2.42003 72.53 7.32003C67.79 13.01 67.74 24.56 67.88 28.67C67.11 27.96 66.04 27.22 65.06 27.4C64.35 27.53 63.83 28.09 63.53 29.05C62.49 32.35 62.18 36.74 63.6 38.78C63.93 39.26 64.37 40.04 64.83 40.87C66.47 43.84 67.85 46.12 69.31 46.3C69.74 46.35 70.1 46.28 70.4 46.14C70.37 47.96 70.47 51.24 71.4 52.97C71.4 52.97 71.4 52.98 71.41 52.98C71.37 54.33 71.08 60.14 69.5 62.09C67.86 64.11 61.2 67.31 55.31 70.12C51.72 71.84 48.32 73.47 45.91 74.86C41.52 77.41 39.47 79.27 38.11 80.5C37.31 81.23 36.78 81.71 36.19 81.94C35.81 82.09 35.42 82.22 35.01 82.35C33.46 82.85 31.7 83.41 29.93 85.47C29.24 86.28 28.01 86.84 26.6 87.49C23.98 88.7 20.72 90.2 19.16 94.17C16.81 100.15 12.89 114.32 13.79 120.09C13.85 120.5 13.92 120.91 14 121.31C12.34 123.79 9.34998 127.4 8.66998 132.05C7.51998 139.86 7.39999 156.16 9.46999 163.29C7.36999 166.67 3.63998 173.57 3.63998 180.01V188.58C3.04998 189.54 -0.0500146 195.13 0.609985 206.04C0.859985 210.22 1.32999 214.08 1.82999 218.16C2.70999 225.43 5.67999 233.66 5.32999 243.39C4.80999 258.22 5.01998 272.37 5.59998 275.11C6.13998 277.61 10.77 289.81 10.96 290.32L11.13 290.77L11.6 290.65C11.63 290.64 14.4 289.85 14.64 286.19L16.12 287.88L16.51 287.33C16.6 287.21 17.9 285.36 18.27 283.07C19.09 281.68 20.81 278.1 18.82 275.07C16.56 271.62 12.82 264.49 12.79 264.41C12.78 264.17 12.76 263.96 12.73 263.82C13.29 259.58 12.73 258.04 14.31 257.44C14.44 257.39 14.51 257.41 14.59 257.46C15.74 258.2 16 260.17 16.28 262.26C16.54 264.22 16.82 266.24 17.81 267.81C18.98 269.65 20.78 272.04 22.87 270.3C24.25 269.15 23.04 261.26 22.71 258.93C22.29 256.01 22.29 255.19 21.14 250.57C20.4 247.62 19.96 246.1 19.77 244.74C19.67 243.61 19.96 238.94 20.39 235.52C20.88 231.6 23.31 225.18 25.87 218.38C28.8 210.61 31.84 202.59 32.03 197.93C32.33 190.71 31.38 187.13 31.04 186.09C31.65 185.36 33.35 183.1 33.81 180.18C34.35 176.79 34.18 170.89 34.17 170.75C34.19 170.65 35.97 160.47 38.9 155.81C41.13 152.27 44.42 145.33 45.81 141.7C46.32 145.29 46.89 148.5 47.46 150.22C48.19 152.4 49.11 154.82 50 157.15C51.27 160.49 52.47 163.63 52.78 165.28C53.22 167.61 52.91 184.76 52.81 190.39C52.79 191.6 52.77 192.39 52.77 192.59C52.77 192.6 52.77 192.6 52.76 192.61C52.65 192.72 52.57 192.91 52.54 193.11C52.31 193.52 51.96 194.08 51.63 194.6C49.86 197.4 46.89 202.07 47.46 206.69C48.1 211.83 48.88 213.98 49.16 214.63C48.58 216.49 44.27 230.56 44.93 240.71C45.16 244.25 43.77 249.78 42.01 256.77C39.74 265.79 35.44 286.55 34.49 299.5C33.08 318.66 38.57 340.59 40.09 352.43C40.42 354.97 40.63 356.64 40.66 357.15C40.73 358.4 40.62 359.27 40.48 360.27C40.3 361.63 40.09 363.17 40.3 366.07C40.32 366.36 40.37 366.68 40.44 367.02C39.7 368.68 33.17 383.67 33 393.44C32.92 398.22 34.45 408.82 36.06 420.04C37.53 430.2 38.92 440.7 39.37 447.19L39.38 447.36C39.42 447.9 39.45 448.42 39.47 448.9C39.54 452.38 39.21 459.3 38.98 459.97C38.46 461.56 37.97 463.07 38.01 465.41C37.87 465.55 37.73 465.68 37.59 465.8C35.67 467.44 34.89 469.65 34.14 471.79C33.89 472.49 33.66 473.15 33.39 473.78C32.35 476.2 23.17 483.78 21.9 484.57C20.91 485.19 18.41 488.86 18.41 488.86C17.47 489.87 17.76 491.52 17.95 492.61C17.98 492.8 18.02 492.98 18.04 493.14C18.12 493.72 18.3 494.13 18.44 494.45C18.57 494.73 18.66 494.94 18.66 495.19C18.67 495.53 18.61 495.94 18.56 496.33C18.51 496.68 18.46 497.05 18.45 497.39C18.44 498 18.47 499.47 19.06 499.96C19.4 500.24 19.72 500.44 20.19 500.52C20.14 500.67 20.07 500.87 19.99 501.11C19.62 502.19 20.44 503.3 21.04 503.75C21.47 504.07 22.15 504.1 22.62 504.07C22.62 504.16 22.64 504.22 22.65 504.27C22.72 505.04 22.98 506.1 23.96 506.56C24.96 507.03 25.47 506.92 26.05 506.64C27.19 508.22 29.52 509.18 31.61 508.98C31.88 508.95 32.15 508.91 32.41 508.84C34.56 508.29 37.26 506.43 38.26 503.95C39.06 501.96 40.23 501.3 41.27 500.85C45.57 499.5 47.91 494.71 48.53 490.27C49.08 486.35 51.6 482.08 52.25 481.2C55.25 479.94 57.02 478.35 58.56 476.1C60.17 473.73 60.24 472.22 59.79 470.26C59.36 468.39 58.2 459.61 57.79 458.25C57.44 457.05 57.27 455.84 56.99 454.35C56.12 449.72 61.87 425.81 63.56 421.15C64.21 419.37 65.14 417.42 66.21 415.16C68.03 411.34 70.3 406.58 72.12 400.56C74.86 391.45 70.53 371.29 70 368.91C71.59 366.12 73.01 363.22 74.24 360.27C75.22 357.91 76.15 355.45 76.61 352.93C77.3 349.2 77.89 342.14 78.58 333.97C79.19 326.75 79.88 318.57 80.72 312.04C81.76 303.98 83.89 294.88 85.6 287.56C86.77 282.55 87.79 278.23 88.12 275.63C88.74 270.76 88.13 265.9 87.78 263.78C88.16 263.82 89.27 263.83 89.54 263.78C89.19 265.9 88.58 270.76 89.2 275.63C89.53 278.24 90.54 282.56 91.72 287.56C93.43 294.87 95.57 303.98 96.6 312.04C97.44 318.57 98.13 326.75 98.74 333.97C99.43 342.14 100.02 349.2 100.71 352.93C101.17 355.46 102.1 357.91 103.08 360.27C104.31 363.22 105.72 366.12 107.32 368.91C106.79 371.29 102.46 391.45 105.2 400.56C107.01 406.58 109.28 411.34 111.11 415.16C112.19 417.42 113.12 419.37 113.76 421.15C115.45 425.81 121.2 449.71 120.33 454.35C120.05 455.84 119.89 457.06 119.53 458.25C119.12 459.61 117.96 468.4 117.53 470.26C117.08 472.22 117.14 473.73 118.76 476.1C120.3 478.35 122.07 479.94 125.07 481.2C125.72 482.08 128.24 486.35 128.79 490.27C129.41 494.71 131.76 499.5 136.05 500.85C137.09 501.3 138.26 501.96 139.06 503.95C140.06 506.44 142.76 508.29 144.91 508.84C145.17 508.91 145.44 508.95 145.71 508.98C147.8 509.18 150.12 508.22 151.27 506.64C151.85 506.92 152.36 507.03 153.36 506.56C154.43 506.05 154.64 504.84 154.69 504.07C155.16 504.1 155.85 504.07 156.28 503.75C156.88 503.31 157.69 502.2 157.33 501.11C157.25 500.89 157.19 500.7 157.14 500.55C157.14 500.54 157.13 500.53 157.13 500.51C157.6 500.42 157.92 500.23 158.26 499.95C158.85 499.46 158.89 497.99 158.87 497.38C158.86 497.04 158.81 496.68 158.76 496.32C158.71 495.93 158.65 495.52 158.66 495.18C158.66 494.93 158.76 494.72 158.88 494.44C159.02 494.12 159.2 493.72 159.28 493.13C159.3 492.97 159.33 492.79 159.37 492.6C159.56 491.51 159.85 489.85 158.91 488.85C158.91 488.85 156.41 485.18 155.42 484.56C154.15 483.77 144.97 476.19 143.93 473.77C143.66 473.14 143.43 472.48 143.18 471.78C142.43 469.64 141.65 467.43 139.73 465.79C139.59 465.67 139.45 465.54 139.31 465.4C139.35 463.06 138.86 461.55 138.34 459.96C138.12 459.28 137.78 452.36 137.85 448.89C137.87 448.41 137.9 447.89 137.94 447.35C137.95 447.29 137.96 447.23 137.97 447.18H137.95C138.39 440.69 139.79 430.19 141.26 420.03C142.88 408.81 144.41 398.21 144.32 393.43C144.15 383.72 137.71 368.88 136.9 367.05C136.99 366.64 137.05 366.26 137.07 365.91C137.28 363.01 137.07 361.47 136.89 360.11C136.76 359.11 136.64 358.25 136.71 357C136.74 356.49 136.95 354.81 137.28 352.28C138.8 340.43 144.29 318.51 142.88 299.35C141.92 286.4 137.63 265.63 135.36 256.62C133.6 249.63 132.21 244.1 132.44 240.56C133.1 230.41 128.8 216.33 128.21 214.48C128.49 213.83 129.27 211.68 129.91 206.54C130.48 201.93 127.51 197.25 125.74 194.45C125.22 193.63 124.63 192.7 124.6 192.44C124.6 192.24 124.59 191.44 124.56 190.24C124.46 184.6 124.15 167.46 124.59 165.13C124.9 163.48 126.1 160.34 127.37 157C128.26 154.66 129.19 152.24 129.91 150.07C130.46 148.41 130.99 145.32 131.49 141.87C131.49 141.86 131.49 141.86 131.49 141.85C132.92 145.4 136.11 151.9 138.18 155.56C141.82 162.01 143.07 172.52 143.27 179.93C143.35 182.88 145.43 185.1 146.04 185.84C145.7 186.88 144.75 190.46 145.05 197.68C145.24 202.34 148.28 210.37 151.21 218.13C153.78 224.93 156.21 231.35 156.69 235.27C157.04 238.1 157.39 239.93 157.41 241.33C157.43 242.67 157.42 244.01 157.29 245.35C157.17 246.59 156.65 248.06 156.02 250.57C154.87 255.2 154.87 256.02 154.45 258.93C154.12 261.27 152.91 269.15 154.29 270.3C156.39 272.04 158.19 269.66 159.35 267.81C160.35 266.24 160.62 264.21 160.88 262.26C161.16 260.17 161.43 258.2 162.57 257.46C162.65 257.41 162.72 257.39 162.85 257.44C164.43 258.03 163.87 259.58 164.43 263.82C164.4 263.97 164.38 264.17 164.37 264.41C164.33 264.48 160.6 271.61 158.34 275.06C156.35 278.09 158.06 281.67 158.89 283.06C159.26 285.35 160.56 287.2 160.65 287.32L161.04 287.87L162.52 286.18C162.76 289.84 165.53 290.63 165.56 290.64L166.03 290.76L166.2 290.31C166.4 289.79 171.03 277.6 171.56 275.1C172.15 272.37 172.36 258.22 171.83 243.38C171.49 233.65 174.45 225.42 175.33 218.15C175.83 214.07 176.29 210.21 176.55 206.03C177.24 195.14 174.14 189.55 173.55 188.59Z" fill="white"/>
<path d="M133.67 125.51C133.11 138.39 142.58 161.48 143.33 164.4C143.33 164.4 145.75 170.33 147.35 173.04C149.71 177.06 152.74 180.65 156.28 183.84C162.27 168.12 164.72 148.08 157.54 132.77C149.51 130.35 142.93 124.92 139.07 117.41C137.47 120.02 135.58 123.11 133.67 125.51Z" fill="#E92A2A"/>
<path d="M155.21 170.72C154.99 170.69 154.77 170.65 154.55 170.6C153.38 157.28 147.14 127.54 147.14 127.51C147.44 127.74 147.65 127.93 147.95 128.16C150.9 141.58 153.95 156.43 155.21 170.72ZM152.21 169.72C151.97 169.59 151.73 169.46 151.49 169.32C150.43 164.91 149.39 160.47 148.4 156.06C145.99 145.32 145.65 134.25 145.68 126.24C145.9 126.44 146.12 126.63 146.34 126.82C146.35 137.88 147.24 147.53 149.04 155.91C150.02 160.51 151.1 165.14 152.21 169.72ZM146.99 165.25C146.64 164.82 146.3 164.37 145.97 163.91C145.43 162.25 144.94 160.58 144.5 158.92C141.72 148.53 140.49 137.48 139.52 126.74C139.7 126.5 139.94 126.22 140.18 125.98C141.19 136.27 142.46 146.84 144.7 156.99C145.3 159.71 146.06 162.45 146.99 165.25ZM140.64 154.48C139.85 152.86 139.16 151.21 138.58 149.54C137.78 146.17 137.1 142.67 136.59 139.26C136.56 138.27 136.63 137.37 136.69 136.36C136.72 135.95 136.7 135.48 136.74 135.07C137.65 141.9 138.88 148.29 140.64 154.48Z" fill="#D52626"/>
<path d="M158.02 170.35C158.25 170.25 158.47 170.13 158.69 170C158.84 157.75 156.63 144.29 152.49 130.96C152.22 130.83 151.95 130.69 151.68 130.54C155.96 144.16 158.21 157.88 158.02 170.35Z" fill="#D52626"/>
<path d="M156.06 183.59C156.02 183.55 155.97 183.51 155.93 183.47C155.87 179.1 155.54 175.01 155.16 170.65C155.42 170.68 155.68 170.7 155.92 170.7C156.67 170.7 157.39 170.52 158.01 170.26C157.96 173.58 157.78 176.83 157.41 180.05C156.98 181.33 156.84 182.1 156.37 183.35L156.06 183.59ZM154.66 182.52C154.43 182.22 154.21 181.92 153.98 181.61C151.01 175.87 148.68 170.44 146.93 165.19C148.26 166.82 149.79 168.28 151.47 169.3C152.38 173.08 153.25 176.8 154.15 180.51L154.66 182.52ZM155.14 181.83C154.97 181.15 154.81 180.48 154.64 179.81C153.81 176.47 152.98 173.08 152.15 169.66C152.57 169.88 153.01 170.07 153.46 170.23C153.82 170.36 154.21 170.48 154.54 170.56C154.87 174.33 155.04 178.06 155.14 181.83ZM149.9 176.86C145.65 172.29 141.45 158.54 140.35 156.32C140.22 156.06 136.95 145.94 136.95 145.94C136.93 145.87 133.96 132.4 133.66 125.51C133.79 125.35 133.92 125.18 134.05 125.02C134.31 124.69 134.56 124.36 134.82 124.02L134.83 124.01C135.29 129.03 135.81 134.16 136.58 139.3C136.69 142.8 137.38 146.2 138.52 149.49C139.32 152.87 140.57 156.65 141.77 159.92C144.53 167.5 147.74 173.26 152.36 179.81M151.74 178.44C147.27 171.81 143.83 164.82 141.53 157.57C141.2 156.52 140.88 155.47 140.58 154.41C140.63 154.51 140.67 154.6 140.72 154.7C142.1 157.49 143.84 160.94 145.98 163.9C147.53 168.72 149.4 173.5 151.74 178.44ZM158.3 176.98C158.49 174.66 158.6 172.31 158.63 169.94C159.28 169.54 159.89 168.98 160.41 168.35C159.86 171.27 159.12 174.18 158.3 176.98ZM136.74 135.08C136.24 131.3 135.81 127.35 135.42 123.2C136.29 122.02 137.13 120.82 137.93 119.59C138.22 119.15 138.5 118.71 138.77 118.27C138.93 119.96 139.08 121.66 139.23 123.37C139.33 124.5 139.43 125.63 139.53 126.77C138.98 127.52 138.73 128.23 138.51 128.71C137.56 130.74 137 132.87 136.74 135.08ZM140.17 126.04C139.94 123.68 139.69 120.5 139.47 118.16C139.97 119.06 140.69 120.21 141.27 121.04C141.93 121.99 142.91 123.28 143.66 124.14C142.22 124.59 140.84 125.39 140.17 126.04Z" fill="#9A1A1C"/>
<path d="M155.68 183.37C154.53 182.33 153.8 181.52 152.81 180.31C147.66 173.99 144.25 166.92 141.53 159.43C140.25 155.93 139.23 152.34 138.4 148.71C138.98 150.53 139.8 152.63 140.64 154.38C140.97 155.54 141.21 156.38 141.58 157.54C143.88 164.79 147.18 171.56 151.65 178.19C149.28 173.21 147.51 168.7 145.95 163.84C146.28 164.31 146.63 164.77 146.99 165.22C148.74 170.49 151.05 175.81 154.03 181.58C154.25 181.88 154.38 182.01 154.6 182.3C154.6 182.3 152.39 173.07 151.48 169.29C151.72 169.44 151.95 169.54 152.19 169.67C153.01 173.07 153.85 176.42 154.67 179.75C154.84 180.43 154.94 180.93 155.11 181.61C155.01 177.86 154.87 174.31 154.54 170.55C154.77 170.6 154.96 170.63 155.2 170.65C155.58 174.97 155.86 179.26 155.92 183.6L155.68 183.37ZM136.58 139.26C135.74 133.9 135.29 129.4 134.81 124.16C135.01 123.9 135.28 123.61 135.48 123.34C135.88 127.59 136.21 131.22 136.74 135.08L136.58 139.26ZM139.51 126.66C139.44 126.01 138.91 119.93 138.76 118.3C138.84 118.16 139.06 117.76 139.14 117.63C139.28 117.91 139.29 117.97 139.44 118.24C139.67 120.67 139.93 123.46 140.17 125.9C140.17 125.9 139.63 126.48 139.51 126.66Z" fill="#8D1819"/>
<path d="M157.38 180.29C157.77 177.02 157.95 173.63 158.01 170.26C158.24 170.17 158.46 170.04 158.68 169.91C158.65 172.33 158.57 174.79 158.37 177.15C158.06 178.21 157.73 179.26 157.38 180.29Z" fill="#8D1819"/>
<path d="M43.5 125.66C44.06 138.54 34.59 161.63 33.84 164.55C33.84 164.55 31.42 170.48 29.82 173.19C27.46 177.21 24.48 180.94 20.95 184.13C14.96 168.41 12.45 148.23 19.63 132.91C27.66 130.49 34.24 125.06 38.1 117.55C39.7 120.16 41.6 123.25 43.5 125.66Z" fill="#E92A2A"/>
<path d="M21.96 170.86C23.22 156.57 26.27 141.73 29.22 128.3C29.53 128.08 29.74 127.89 30.03 127.65C30.03 127.67 23.79 157.41 22.62 170.74C22.4 170.8 22.18 170.84 21.96 170.86ZM24.96 169.87C26.07 165.28 27.14 160.66 28.13 156.06C29.93 147.68 30.82 138.03 30.83 126.97C31.05 126.78 31.27 126.58 31.49 126.39C31.52 134.4 31.18 145.47 28.77 156.21C27.78 160.62 26.74 165.06 25.68 169.47C25.45 169.61 25.21 169.74 24.96 169.87ZM30.18 165.4C31.11 162.6 31.87 159.85 32.47 157.14C34.71 146.99 35.99 136.43 36.99 126.13C37.24 126.37 37.48 126.65 37.65 126.89C36.68 137.62 35.45 148.68 32.67 159.07C32.22 160.74 31.73 162.4 31.2 164.06C30.88 164.52 30.54 164.97 30.18 165.4ZM36.53 154.62C38.28 148.43 39.52 142.04 40.43 135.22C40.48 135.62 40.46 136.1 40.48 136.51C40.55 137.51 40.61 138.42 40.58 139.41C40.06 142.82 39.38 146.32 38.59 149.69C38.01 151.36 37.32 153 36.53 154.62ZM42.29 124.2C42.09 123.93 41.89 123.67 41.69 123.4C41.89 123.67 42.09 123.94 42.29 124.2Z" fill="#D52626"/>
<path d="M19.16 170.5C18.93 170.4 18.71 170.28 18.49 170.15C18.34 157.9 20.55 144.44 24.69 131.11C24.96 130.98 25.23 130.84 25.5 130.69C21.21 144.31 18.96 158.03 19.16 170.5Z" fill="#D52626"/>
<path d="M19.83 180.94C19.46 177.72 19.21 173.72 19.16 170.41C19.78 170.68 20.51 170.86 21.25 170.85C21.5 170.85 21.75 170.83 22.01 170.8C21.63 175.16 21.29 179.41 21.23 183.79C21.19 183.83 20.97 184.1 20.93 184.14C20.94 184.13 20.26 182.22 19.83 180.94ZM22.51 182.66L23.01 180.65C23.91 176.95 24.79 173.23 25.69 169.44C27.37 168.43 28.91 166.96 30.23 165.33C28.49 170.57 26.15 176.01 23.18 181.75C22.96 182.06 22.74 182.36 22.51 182.66ZM22.03 181.98C22.13 178.21 22.3 174.48 22.63 170.71C22.96 170.63 23.35 170.51 23.71 170.38C24.16 170.22 24.59 170.03 25.02 169.81C24.2 173.22 23.36 176.62 22.53 179.96C22.36 180.63 22.2 181.3 22.03 181.98ZM24.81 179.94C29.44 173.39 32.64 167.63 35.4 160.05C36.59 156.78 37.85 153 38.65 149.62C39.79 146.33 40.48 142.93 40.59 139.43C41.37 134.3 41.89 129.16 42.34 124.14L42.35 124.15C42.6 124.48 42.86 124.82 43.12 125.15C43.25 125.32 43.38 125.48 43.51 125.64C43.21 132.53 40.24 146 40.22 146.07C40.22 146.07 36.95 156.2 36.82 156.45C35.71 158.67 31.52 172.42 27.27 176.99M25.42 178.57C27.77 173.63 29.64 168.86 31.19 164.04C33.32 161.08 35.07 157.63 36.45 154.84C36.5 154.74 36.54 154.65 36.59 154.55C36.29 155.61 35.98 156.66 35.64 157.71C33.34 164.96 29.9 171.95 25.43 178.58M18.59 177.47C17.77 174.67 17.07 171.19 16.53 168.27C17.05 168.9 17.9 169.69 18.54 170.08C18.57 172.45 18.63 175.35 18.83 177.67L18.59 177.47ZM40.43 135.23C40.17 133.02 39.61 130.89 38.65 128.86C38.43 128.38 38.17 127.67 37.63 126.92C37.73 125.78 37.83 124.65 37.93 123.52C38.08 121.81 38.23 120.11 38.39 118.42C38.67 118.86 38.95 119.3 39.23 119.74C40.03 120.97 40.87 122.17 41.74 123.35C41.35 127.5 40.93 131.44 40.43 135.23ZM37 126.19C36.33 125.53 34.95 124.74 33.51 124.29C34.27 123.43 35.24 122.15 35.9 121.19C36.48 120.36 37.19 119.21 37.7 118.31C37.48 120.65 37.23 123.83 37 126.19Z" fill="#9A1A1C"/>
<path d="M21.25 183.75C21.31 179.42 21.59 175.13 21.97 170.8C22.21 170.78 22.41 170.75 22.63 170.7C22.3 174.46 22.15 178 22.06 181.76C22.23 181.08 22.33 180.58 22.5 179.9C23.32 176.57 24.16 173.21 24.98 169.82C25.23 169.69 25.46 169.59 25.69 169.44C24.79 173.22 22.57 182.45 22.57 182.45C22.79 182.16 22.92 182.02 23.14 181.73C26.12 175.96 28.43 170.67 30.17 165.4C30.53 164.96 30.88 164.46 31.22 163.99C29.66 168.85 27.89 173.36 25.52 178.34C29.99 171.71 33.29 164.94 35.59 157.69C35.96 156.53 36.2 155.69 36.53 154.53C37.36 152.78 38.18 150.67 38.77 148.86C37.94 152.49 36.92 156.08 35.64 159.58C32.91 167.07 29.51 174.14 24.36 180.46C23.38 181.67 22.64 182.48 21.49 183.52L21.25 183.75ZM40.43 135.23C40.95 131.37 41.29 127.74 41.69 123.49C41.89 123.76 42.16 124.04 42.36 124.31C41.88 129.55 41.43 134.05 40.59 139.41L40.43 135.23ZM37 126.04C37.24 123.59 37.5 120.8 37.73 118.38C37.88 118.11 37.89 118.05 38.03 117.77C38.11 117.91 38.33 118.31 38.41 118.44C38.26 120.07 37.73 126.15 37.66 126.8C37.54 126.63 37 126.04 37 126.04Z" fill="#8D1819"/>
<path d="M19.84 180.93C19.45 177.66 19.21 173.78 19.16 170.41C18.93 170.32 18.71 170.19 18.49 170.06C18.52 172.48 18.62 175.3 18.82 177.67C19.13 178.73 19.16 179.14 19.51 180.18L19.84 180.93Z" fill="#8D1819"/>
<path d="M88.48 69.2101C87.6 69.1401 86.72 68.95 85.9 68.65C85.73 67.11 85.55 65.55 85.36 63.94C85.79 64.04 86.26 64.12 86.71 64.18C87.07 64.23 87.43 64.26 87.77 64.29H89.2C89.53 64.26 89.88 64.23 90.24 64.18C90.69 64.12 91.13 64.05 91.56 63.95C91.37 65.56 91.19 67.13 91.02 68.67C90.2 68.96 89.34 69.1401 88.48 69.2101ZM91.7 68.39C91.87 66.85 92.05 65.3101 92.23 63.7701C92.31 63.7501 92.38 63.72 92.45 63.69C92.96 63.51 93.91 62.92 95.08 62.11C94.95 63.71 94.7 65.2901 94.38 66.8501C93.54 67.4501 92.64 67.98 91.7 68.39ZM85.2 68.37C84.26 67.95 83.36 67.41 82.51 66.81C82.19 65.25 81.94 63.68 81.82 62.08C83.02 62.91 83.99 63.51 84.5 63.7C84.56 63.72 84.61 63.74 84.67 63.76C84.85 65.29 85.03 66.83 85.2 68.37ZM95.19 66.26C95.47 64.73 95.68 63.1901 95.78 61.6301C97.27 60.5601 99.02 59.21 100.63 57.86C100.13 59.55 99.64 61.1101 99.15 62.5701C98.66 63.1201 98.14 63.65 97.61 64.16C96.85 64.88 96.04 65.6 95.19 66.26ZM81.71 66.2101C80.88 65.5601 80.1 64.86 79.36 64.16C78.83 63.65 78.31 63.1201 77.82 62.5701C77.33 61.1101 76.84 59.55 76.34 57.86C77.93 59.19 79.65 60.52 81.13 61.59C81.22 63.15 81.43 64.6901 81.71 66.2101Z" fill="#A89FA8"/>
<path d="M82.51 66.81C82.24 66.62 81.97 66.42 81.71 66.21C81.43 64.69 81.22 63.15 81.13 61.59C81.37 61.76 81.6 61.92 81.82 62.08C81.94 63.68 82.19 65.25 82.51 66.81Z" fill="#998F99"/>
<path d="M85.9 68.65C85.78 68.61 85.67 68.56 85.55 68.52C85.43 68.47 85.32 68.42 85.21 68.37C85.04 66.83 84.86 65.29 84.68 63.75C84.89 63.82 85.12 63.88 85.36 63.94C85.54 65.55 85.72 67.12 85.9 68.65Z" fill="#998F99"/>
<path d="M94.39 66.85C94.71 65.29 94.96 63.71 95.09 62.11C95.31 61.96 95.54 61.79 95.78 61.62C95.69 63.18 95.48 64.72 95.19 66.25C94.93 66.46 94.66 66.66 94.39 66.85Z" fill="#998F99"/>
<path d="M91.01 68.67C91.18 67.13 91.36 65.56 91.55 63.95C91.79 63.9 92.01 63.84 92.23 63.77C92.05 65.31 91.87 66.85 91.7 68.39C91.6 68.43 91.51 68.47 91.41 68.51C91.28 68.57 91.14 68.62 91.01 68.67Z" fill="#998F99"/>
<path d="M86.75 99.54C86.64 99.33 86.52 99.13 86.4 98.93C86.34 98.84 86.28 98.75 86.22 98.66C86.72 90.81 86.12 83.54 84.41 77.03C84.16 76.07 83.9 75.12 83.64 74.16C82.93 71.57 82.2 68.92 81.71 66.21C81.97 66.42 82.24 66.62 82.51 66.81C82.94 68.93 83.51 71.01 84.06 73.05C84.75 75.59 85.46 78.22 85.92 80.88C86.98 87.07 87.27 93.11 86.83 99.34C86.82 99.42 86.8 99.49 86.75 99.54Z" fill="#E9E7E9"/>
<path d="M87.89 103.82C87.81 103.02 87.69 102.24 87.49 101.5C88 96.15 87.46 90.71 86.94 85.41C86.85 84.54 86.77 83.67 86.69 82.8C86.25 78.07 85.75 73.23 85.21 68.37C85.32 68.42 85.44 68.47 85.55 68.52C85.67 68.57 85.78 68.61 85.9 68.65C86.55 74.46 87.09 79.78 87.53 84.81C87.59 85.5 87.65 86.2 87.72 86.89C88.22 92.45 88.74 98.18 87.89 103.82Z" fill="#E9E7E9"/>
<path d="M90.8 98.8C90.29 90.92 90.79 83.56 92.5 77.03C92.75 76.07 93.01 75.12 93.27 74.16C93.98 71.58 94.7 68.95 95.19 66.26C94.93 66.46 94.66 66.66 94.39 66.85C93.96 68.95 93.4 71.02 92.85 73.04C92.16 75.58 91.45 78.21 90.99 80.87C89.93 87.06 89.77 93.68 90.22 99.91L90.8 98.8Z" fill="#E9E7E9"/>
<path d="M89.18 103.47C88.28 97.75 88.68 92.52 89.2 86.89C89.26 86.2 89.33 85.51 89.39 84.82C89.83 79.79 90.37 74.47 91.02 68.68C91.16 68.63 91.29 68.58 91.42 68.53C91.52 68.49 91.61 68.45 91.71 68.41C91.17 73.27 90.67 78.1 90.23 82.82C90.15 83.69 90.06 84.55 89.98 85.42C89.45 90.76 89 96.54 89.53 101.94C89.34 102.7 89.51 102.54 89.44 103.37L89.18 103.47Z" fill="#E9E7E9"/>
<path d="M119.76 375.96C120.21 375.96 120.66 375.93 121.1 375.85C123.39 375.47 125.08 374.16 126.55 372.58C126.54 372.58 126.53 372.58 126.53 372.58L126.32 372.59C123.26 372.59 112.88 364.13 110.56 361.54C110.56 361.54 124.08 371.52 126.28 371.52C126.31 371.52 126.34 371.52 126.37 371.51C128.21 371.23 133.46 362.61 133.57 362.42C133.57 362.42 133.49 362.56 133.34 362.8C131.6 364.7 129.1 366 126.52 366C126.38 366 126.25 366 126.11 365.99C123.27 365.84 120.51 363.9 119.81 361.18C119.29 359.15 119.92 356.97 121.04 355.19C122.16 353.41 123.75 351.97 125.31 350.55C122.06 351.64 120.53 352.32 118.8 353.52C117.54 354.39 113.55 356.26 110.62 356.26C109.52 356.26 108.57 356 107.97 355.32C107.37 354.63 106.77 353.95 106.29 353.18C106.03 352.75 105.76 352.32 105.5 351.89C105.1 351.87 104.69 351.82 104.3 351.74C103.27 351.55 102.26 351.17 101.31 350.57C101.44 351.52 101.56 352.37 101.69 353.07C102.51 357.54 104.57 361.89 106.64 365.9C106.98 366.55 107.31 367.23 107.66 367.91C108.59 369.72 109.58 371.58 110.86 373.06L110.96 373.17C111.76 373.52 112.55 373.85 113.27 374.17C115.33 375.12 117.53 375.96 119.76 375.96Z" fill="#A89FA8"/>
<path d="M57.43 375.96C56.98 375.96 56.53 375.93 56.09 375.85C53.8 375.47 52.11 374.16 50.64 372.58C50.65 372.58 50.66 372.58 50.66 372.58L50.87 372.59C53.93 372.59 64.31 364.13 66.63 361.54C66.63 361.54 53.11 371.52 50.91 371.52C50.88 371.52 50.85 371.52 50.82 371.51C48.98 371.23 43.73 362.61 43.62 362.42C43.62 362.42 43.7 362.56 43.85 362.8C45.59 364.7 48.09 366 50.67 366C50.81 366 50.94 366 51.08 365.99C53.92 365.84 56.68 363.9 57.38 361.18C57.9 359.15 57.27 356.97 56.15 355.19C55.03 353.41 53.44 351.97 51.88 350.55C55.13 351.64 56.66 352.32 58.39 353.52C59.65 354.39 63.64 356.26 66.57 356.26C67.67 356.26 68.62 356 69.22 355.32C69.82 354.63 70.42 353.95 70.9 353.18C71.16 352.75 71.43 352.32 71.69 351.89C72.09 351.87 72.5 351.82 72.89 351.74C73.92 351.55 74.93 351.17 75.88 350.57C75.75 351.52 75.63 352.37 75.5 353.07C74.68 357.54 72.62 361.89 70.55 365.9C70.21 366.55 69.88 367.23 69.53 367.91C68.6 369.72 67.61 371.58 66.33 373.06L66.23 373.17C65.43 373.52 64.64 373.85 63.92 374.17C61.86 375.12 59.65 375.96 57.43 375.96Z" fill="#A89FA8"/>
<path d="M82.22 169.04C78.91 169.55 75.88 170.7 72.74 171.78C64.29 174.69 67.29 163.81 69.61 160.07C72.29 155.76 77.72 153.28 82.62 152.38C88.48 151.3 87.14 158.22 87.05 160.83C86.93 164.36 87.23 168.39 82.22 169.04ZM87.69 160.89C87.76 158.96 87.88 157.05 87.73 155.12C87.21 148.38 76.77 153.36 74 155.03C68.65 158.26 65.79 164.54 66.53 170.59C66.68 171.82 67.66 173.45 69.17 173.28C73.71 172.77 77.8 170.36 82.33 169.66C84.7 169.35 86.15 168.93 87.23 166.82C88.04 165.27 87.63 162.56 87.69 160.89Z" fill="black"/>
<path d="M94.58 169.04C89.5 168.38 89.8 164.35 89.67 160.83C89.57 158.22 88.21 151.29 94.14 152.39C99.11 153.31 104.61 155.79 107.34 160.11C109.7 163.85 112.76 174.74 104.19 171.81C101 170.72 97.93 169.56 94.58 169.04ZM89.01 160.88C89.07 162.55 88.67 165.26 89.48 166.81C90.58 168.92 92.05 169.35 94.45 169.66C99.04 170.37 103.2 172.79 107.79 173.31C109.32 173.48 110.31 171.86 110.46 170.63C111.2 164.58 108.29 158.3 102.86 155.05C100.05 153.37 89.46 148.37 88.95 155.11C88.81 157.04 88.94 158.95 89.01 160.88Z" fill="black"/>
<path d="M80.58 149.45C77.79 151.11 67.86 157.59 67.12 150.93C66.48 145.17 68.18 141.1 73.5 138.49C76.74 136.9 81.91 133.87 85.48 134.47C87.94 135.91 86.95 140.65 86.54 142.81C85.93 146.11 83.25 147.85 80.58 149.45ZM85.89 133.89C85.13 133.57 84.15 133.69 83.37 133.81C82.05 134.01 80.79 134.52 79.58 135.07C79.26 135.21 78.94 135.36 78.62 135.51C75.85 136.8 72.44 137.72 70.04 139.69C67.58 141.71 66.62 143.93 66.31 147.06C66.15 148.65 65.81 153.84 67.31 155.11C69.09 156.62 71.22 154.89 73 154.05C76.67 152.31 81.56 150.59 84.49 147.68C86.79 145.39 88.12 141.47 88.02 138.27C87.97 136.82 87.48 134.88 86.18 134.05L85.89 133.89Z" fill="black"/>
<path d="M95.83 149.47C93.15 147.88 90.48 146.13 89.86 142.83C89.46 140.68 88.47 135.93 90.92 134.49C94.5 133.89 99.66 136.92 102.9 138.51C108.22 141.11 109.92 145.19 109.28 150.95C108.55 157.61 98.62 151.13 95.83 149.47ZM90.52 133.92L90.22 134.08C88.92 134.91 88.42 136.85 88.38 138.3C88.28 141.5 89.61 145.43 91.91 147.71C94.84 150.62 99.72 152.34 103.4 154.08C105.18 154.93 107.31 156.65 109.09 155.14C110.6 153.87 110.25 148.68 110.09 147.09C109.78 143.96 108.82 141.74 106.36 139.72C103.96 137.75 100.56 136.83 97.78 135.54C97.46 135.39 97.14 135.24 96.82 135.1C95.61 134.55 94.35 134.04 93.03 133.84C92.26 133.72 91.28 133.6 90.52 133.92Z" fill="black"/>
<path d="M50.78 372.6L50.57 372.59C50.56 372.59 50.55 372.59 50.55 372.59L50.54 372.58C47.88 372.11 43 363.64 43 362.45H43.53C43.64 362.63 48.9 371.25 50.73 371.54C50.76 371.54 50.78 371.55 50.82 371.55C53.02 371.55 66.54 361.57 66.54 361.57C64.22 364.14 53.84 372.6 50.78 372.6Z" fill="black"/>
<path d="M126.24 372.6L126.45 372.59C126.46 372.59 126.47 372.59 126.47 372.59L126.48 372.58C129.14 372.11 134.02 363.64 134.02 362.45H133.49C133.38 362.63 128.12 371.25 126.29 371.54C126.26 371.54 126.24 371.55 126.2 371.55C124 371.55 110.48 361.57 110.48 361.57C112.8 364.14 123.18 372.6 126.24 372.6Z" fill="black"/>
<path d="M173.56 188.59V180.02C173.56 173.83 170.13 167.23 167.99 163.72C170.1 156.64 170.13 139.7 168.98 131.85C168.28 127.07 164.95 123.18 163.31 120.68C163.34 120.49 163.37 120.3 163.41 120.1C164.31 114.33 160.39 100.16 158.04 94.18C156.48 90.21 153.22 88.71 150.6 87.5C149.18 86.85 147.96 86.28 147.27 85.48C145.5 83.42 143.74 82.85 142.19 82.36C141.78 82.23 141.39 82.1 141.01 81.95C140.41 81.71 139.89 81.23 139.09 80.51C137.73 79.28 135.68 77.41 131.29 74.87C128.88 73.47 125.49 71.85 121.89 70.13C116.01 67.31 109.14 64.06 107.5 62.04C106.01 60.2 105.85 54.36 105.83 52.44C106.54 50.63 106.62 47.79 106.59 46.14C106.89 46.28 107.25 46.35 107.68 46.3C109.15 46.12 110.52 43.84 112.16 40.87C112.62 40.04 113.06 39.25 113.39 38.78C114.81 36.75 114.5 32.35 113.46 29.05C113.16 28.09 112.64 27.53 111.93 27.4C110.95 27.22 109.88 27.97 109.11 28.67C109.26 24.56 109.2 13.01 104.46 7.32003C100.38 2.42003 92.21 1.20003 89.11 0.910034H87.89C84.79 1.20003 76.63 2.42003 72.54 7.32003C67.8 13.01 67.75 24.56 67.89 28.67C67.12 27.96 66.05 27.22 65.07 27.4C64.36 27.53 63.84 28.09 63.54 29.05C62.5 32.35 62.19 36.74 63.61 38.78C63.94 39.26 64.38 40.04 64.84 40.87C66.48 43.84 67.86 46.12 69.32 46.3C69.75 46.35 70.11 46.28 70.41 46.14C70.38 47.96 70.48 51.24 71.41 52.97C71.41 52.97 71.41 52.98 71.42 52.98C71.38 54.33 71.09 60.14 69.51 62.09C67.87 64.11 61.21 67.31 55.32 70.12C51.73 71.84 48.33 73.47 45.92 74.86C41.53 77.41 39.48 79.27 38.12 80.5C37.32 81.23 36.79 81.71 36.2 81.94C35.82 82.09 35.43 82.22 35.02 82.35C33.47 82.85 31.71 83.41 29.94 85.47C29.25 86.28 28.02 86.84 26.61 87.49C23.99 88.7 20.73 90.2 19.17 94.17C16.82 100.15 12.9 114.32 13.8 120.09C13.86 120.5 13.93 120.91 14.01 121.31C12.35 123.79 9.35999 127.4 8.67999 132.05C7.52999 139.86 7.41 156.16 9.48 163.29C7.38 166.67 3.64999 173.57 3.64999 180.01V188.58C3.05999 189.54 -0.0400048 195.13 0.619995 206.04C0.869995 210.22 1.33999 214.08 1.83999 218.16C2.71999 225.43 5.68999 233.66 5.33999 243.39C4.81999 258.22 5.02999 272.37 5.60999 275.11C6.14999 277.61 10.78 289.81 10.97 290.32L11.14 290.77L11.61 290.65C11.64 290.64 14.41 289.85 14.65 286.19L16.13 287.88L16.52 287.33C16.61 287.21 17.91 285.36 18.28 283.07C19.1 281.68 20.82 278.1 18.83 275.07C16.57 271.62 12.83 264.49 12.8 264.41C12.79 264.17 12.77 263.96 12.74 263.82C13.3 259.58 12.74 258.04 14.32 257.44C14.45 257.39 14.52 257.41 14.6 257.46C15.75 258.2 16.01 260.17 16.29 262.26C16.55 264.22 16.83 266.24 17.82 267.81C18.99 269.65 20.79 272.04 22.88 270.3C24.26 269.15 23.05 261.27 22.72 258.93C22.3 256.01 22.3 255.19 21.15 250.57C20.41 247.62 19.97 246.1 19.78 244.74C19.68 243.61 19.97 238.94 20.4 235.52C20.89 231.6 23.32 225.18 25.88 218.38C28.81 210.61 31.85 202.59 32.04 197.93C32.34 190.71 31.39 187.13 31.05 186.09C31.66 185.36 33.36 183.1 33.82 180.18C34.36 176.79 34.19 170.89 34.17 170.75C34.19 170.65 35.97 160.47 38.9 155.81C41.13 152.27 44.42 145.33 45.81 141.7C46.32 145.29 46.89 148.5 47.46 150.22C48.19 152.4 49.11 154.82 50 157.15C51.27 160.49 52.47 163.63 52.78 165.28C53.22 167.61 52.91 184.76 52.81 190.39C52.79 191.6 52.77 192.39 52.77 192.59C52.77 192.6 52.77 192.6 52.76 192.61C52.65 192.72 52.57 192.91 52.54 193.11C52.31 193.52 51.96 194.08 51.63 194.6C49.86 197.4 46.89 202.07 47.46 206.69C48.1 211.83 48.88 213.98 49.16 214.63C48.58 216.49 44.27 230.56 44.93 240.71C45.16 244.25 43.77 249.78 42.01 256.77C39.74 265.79 35.44 286.55 34.49 299.5C33.08 318.66 38.57 340.59 40.09 352.43C40.41 354.97 40.63 356.64 40.66 357.15C40.73 358.4 40.62 359.27 40.48 360.26C40.3 361.62 40.09 363.16 40.3 366.06C40.32 366.35 40.37 366.67 40.44 367.01C39.7 368.67 33.17 383.66 33 393.43C32.92 398.21 34.45 408.81 36.06 420.03C37.53 430.19 38.92 440.69 39.37 447.18L39.38 447.35C39.42 447.89 39.45 448.41 39.47 448.89C39.54 452.37 39.21 459.29 38.98 459.96C38.46 461.55 37.97 463.06 38.01 465.4C37.87 465.54 37.73 465.67 37.59 465.79C35.67 467.43 34.89 469.64 34.14 471.78C33.89 472.48 33.66 473.14 33.39 473.77C32.35 476.19 23.17 483.77 21.9 484.56C20.91 485.18 18.41 488.85 18.41 488.85C17.47 489.86 17.76 491.51 17.95 492.6C17.98 492.79 18.02 492.97 18.04 493.13C18.12 493.71 18.3 494.12 18.44 494.44C18.57 494.72 18.66 494.93 18.66 495.18C18.67 495.52 18.61 495.93 18.56 496.32C18.51 496.67 18.46 497.04 18.45 497.38C18.44 497.99 18.47 499.46 19.06 499.95C19.4 500.23 19.72 500.43 20.19 500.51C20.14 500.66 20.07 500.86 19.99 501.1C19.62 502.18 20.44 503.29 21.04 503.74C21.47 504.06 22.15 504.09 22.62 504.06C22.62 504.15 22.64 504.21 22.65 504.26C22.72 505.03 22.98 506.09 23.96 506.55C24.96 507.02 25.47 506.91 26.05 506.63C27.19 508.21 29.52 509.17 31.61 508.97C31.88 508.94 32.15 508.9 32.41 508.83C34.56 508.28 37.26 506.42 38.26 503.94C39.06 501.95 40.23 501.29 41.27 500.83C45.57 499.48 47.91 494.69 48.53 490.25C49.08 486.33 51.6 482.06 52.25 481.18C55.25 479.92 57.02 478.33 58.56 476.08C60.17 473.71 60.24 472.2 59.79 470.24C59.36 468.37 58.2 459.59 57.79 458.23C57.44 457.03 57.27 455.82 56.99 454.33C56.12 449.7 61.87 425.79 63.56 421.13C64.21 419.35 65.14 417.4 66.21 415.14C68.03 411.32 70.3 406.56 72.12 400.54C74.86 391.43 70.53 371.27 70 368.89C71.59 366.1 73.01 363.2 74.24 360.25C75.22 357.89 76.15 355.43 76.61 352.91C77.3 349.18 77.89 342.12 78.58 333.95C79.19 326.73 79.88 318.55 80.72 312.02C81.76 303.96 83.89 294.86 85.6 287.54C86.77 282.53 87.79 278.21 88.12 275.61C88.74 270.74 88.13 265.88 87.78 263.76C88.16 263.8 89.27 263.81 89.54 263.76C89.19 265.88 88.58 270.74 89.2 275.61C89.53 278.22 90.54 282.54 91.72 287.54C93.43 294.85 95.57 303.96 96.6 312.02C97.44 318.55 98.13 326.73 98.74 333.95C99.43 342.12 100.02 349.18 100.71 352.91C101.17 355.44 102.1 357.89 103.08 360.25C104.31 363.2 105.72 366.1 107.32 368.89C106.79 371.27 102.46 391.43 105.2 400.54C107.01 406.56 109.28 411.32 111.11 415.14C112.19 417.4 113.12 419.35 113.76 421.13C115.45 425.79 121.2 449.69 120.33 454.33C120.05 455.82 119.89 457.04 119.53 458.23C119.13 459.59 117.96 468.38 117.53 470.24C117.08 472.2 117.14 473.71 118.76 476.08C120.3 478.33 122.07 479.92 125.07 481.18C125.72 482.06 128.24 486.33 128.79 490.25C129.41 494.69 131.76 499.48 136.05 500.83C137.09 501.28 138.26 501.94 139.06 503.94C140.06 506.43 142.76 508.28 144.91 508.83C145.17 508.9 145.44 508.94 145.71 508.97C147.8 509.17 150.12 508.21 151.27 506.63C151.85 506.91 152.36 507.02 153.36 506.55C154.43 506.04 154.64 504.83 154.69 504.06C155.16 504.09 155.85 504.06 156.28 503.74C156.88 503.3 157.69 502.19 157.33 501.1C157.25 500.88 157.19 500.69 157.14 500.54C157.14 500.53 157.13 500.52 157.13 500.5C157.6 500.41 157.92 500.22 158.26 499.94C158.85 499.45 158.89 497.98 158.87 497.37C158.86 497.03 158.81 496.67 158.76 496.31C158.71 495.92 158.65 495.51 158.66 495.17C158.66 494.92 158.76 494.71 158.88 494.43C159.02 494.11 159.2 493.71 159.28 493.12C159.3 492.96 159.33 492.78 159.37 492.59C159.56 491.5 159.85 489.84 158.91 488.84C158.91 488.84 156.41 485.17 155.42 484.55C154.15 483.76 144.97 476.18 143.93 473.76C143.66 473.13 143.43 472.47 143.18 471.77C142.43 469.63 141.65 467.42 139.73 465.78C139.59 465.66 139.45 465.53 139.31 465.39C139.35 463.05 138.86 461.54 138.34 459.95C138.12 459.27 137.78 452.35 137.85 448.88C137.87 448.4 137.9 447.88 137.94 447.34C137.95 447.28 137.96 447.22 137.97 447.17H137.95C138.39 440.68 139.79 430.18 141.26 420.02C142.88 408.8 144.41 398.2 144.32 393.42C144.15 383.71 137.71 368.87 136.9 367.04C136.99 366.63 137.05 366.25 137.07 365.9C137.28 363 137.07 361.46 136.89 360.1C136.76 359.1 136.64 358.24 136.71 356.99C136.74 356.48 136.95 354.8 137.28 352.27C138.8 340.42 144.29 318.5 142.88 299.34C141.92 286.39 137.63 265.62 135.36 256.61C133.6 249.62 132.21 244.09 132.44 240.55C133.1 230.4 128.8 216.32 128.22 214.47C128.5 213.82 129.28 211.67 129.92 206.53C130.49 201.92 127.52 197.24 125.75 194.44C125.23 193.62 124.64 192.69 124.61 192.43C124.61 192.23 124.6 191.43 124.57 190.23C124.47 184.59 124.16 167.45 124.6 165.12C124.91 163.47 126.11 160.33 127.38 156.99C128.27 154.65 129.2 152.23 129.92 150.06C130.47 148.4 131 145.31 131.5 141.86C131.5 141.85 131.5 141.85 131.5 141.84C132.93 145.39 136.12 151.89 138.19 155.55C141.83 162 143.08 172.51 143.28 179.92C143.36 182.87 145.44 185.09 146.05 185.83C145.71 186.87 144.76 190.45 145.06 197.67C145.25 202.33 148.29 210.36 151.22 218.12C153.79 224.92 156.22 231.34 156.7 235.26C157.05 238.09 157.4 239.92 157.42 241.32C157.44 242.66 157.43 244 157.3 245.34C157.18 246.58 156.66 248.05 156.03 250.56C154.88 255.19 154.88 256.01 154.46 258.92C154.13 261.26 152.92 269.14 154.3 270.29C156.4 272.03 158.2 269.65 159.36 267.8C160.36 266.23 160.63 264.2 160.89 262.25C161.17 260.16 161.44 258.19 162.58 257.45C162.66 257.4 162.73 257.38 162.86 257.43C164.44 258.02 163.88 259.57 164.44 263.81C164.41 263.96 164.39 264.16 164.38 264.4C164.34 264.47 160.61 271.6 158.35 275.05C156.36 278.08 158.07 281.66 158.9 283.05C159.27 285.34 160.57 287.19 160.66 287.31L161.05 287.86L162.53 286.17C162.77 289.83 165.54 290.62 165.57 290.63L166.04 290.75L166.21 290.3C166.41 289.78 171.04 277.59 171.57 275.09C172.16 272.36 172.37 258.21 171.84 243.37C171.5 233.64 174.46 225.41 175.35 218.14C175.85 214.06 176.31 210.2 176.57 206.02C177.24 195.14 174.15 189.55 173.56 188.59ZM168.12 131.38C169.44 139.08 169.2 155.64 167.29 162.6C166.88 161.97 166.58 161.53 166.43 161.32C166.34 159.72 165.65 147.55 164.47 141.81C163.35 136.39 161.37 131.2 160.96 130.15C161.24 129.34 162.31 126.06 163.1 121.87C163.89 122.81 167.57 128.17 168.12 131.38ZM113.13 190.36C113.14 189.13 113.21 187.91 113.32 186.69C113.6 186.77 113.93 186.77 114.34 186.66C117 185.93 119.36 181.43 120.47 179.27C121.75 176.8 122.71 174.26 123.32 171.63C123.3 175.99 123.37 181.74 123.46 187C121.69 190.01 119.31 192.71 116.31 194.54C115.86 194.83 115.23 195.11 114.7 195.18C113.64 195.32 113.1 193.95 113.21 193.08C113.17 192.17 113.13 191.26 113.13 190.36ZM123.41 166.32C123.15 172.39 120.98 178.23 117.3 183.06C116.38 184.27 115.3 185.78 113.55 184.98C112.62 184.56 112.69 183.5 112.82 182.65C113.01 181.34 113.14 180.03 113.39 178.73C113.51 178.08 113.68 177.43 113.89 176.81C113.92 176.72 114.06 176.26 114.21 175.84C114.74 175.99 115.47 175.78 116.49 175.05C119.51 172.88 121.17 169.47 122.01 165.78C122.63 165.24 123.22 164.67 123.78 164.06C123.7 164.37 123.63 164.66 123.58 164.92C123.52 165.19 123.41 166.27 123.41 166.32ZM118.96 171.68C118.45 172.39 117.94 173.06 117.28 173.64C116.51 174.32 115.55 175.48 114.4 174.86C113.36 174.3 113.7 172.52 113.79 171.58C113.95 169.93 114.17 168.29 114.35 166.64C117.11 164.18 119.36 161.01 120.92 157.52C121.32 157.41 121.72 157.28 122.1 157.14C122.23 161.7 121.73 167.85 118.96 171.68ZM118.46 160.86C117.33 162.56 114.4 167.92 113.74 163.62C113.32 160.88 112.15 156.75 114.3 154.35C115.02 154.21 115.55 153.33 116.05 152.87C116.63 152.35 117.2 151.81 117.76 151.25C117.96 151.05 118.15 150.84 118.35 150.63C119.79 150.5 121.18 150.21 122.5 149.76C122.02 153.76 120.63 157.62 118.46 160.86ZM113.44 152.24C112.97 150.99 112.42 149.74 112.44 148.38C112.47 144.74 115.36 141.9 118.58 140.29C120.44 140.94 122.36 141.39 124.34 141.62C122.92 144.13 121.28 146.53 119.34 148.69C118.63 149.48 117.76 150.15 116.97 150.87C116.47 151.33 115.96 151.78 115.48 152.26C115.16 152.58 114.66 153.1 114.19 153.16C113.61 153.24 113.62 152.7 113.44 152.24ZM119.06 149.9C119.69 149.22 120.31 148.52 120.9 147.79C122.45 145.88 123.83 143.84 125.05 141.7C125.95 141.78 126.9 141.84 127.82 141.84C128.05 143 128.16 144.36 128.19 145.74L128.17 145.75C125.58 148.05 122.48 149.45 119.06 149.9ZM116.25 138.62C116.48 138.61 116.71 138.61 116.94 138.6C119.83 138.46 122.78 136.91 125.43 134.91C126.46 136.94 127.19 139.03 127.68 141.19C123.64 141.19 119.8 140.31 116.25 138.62ZM120.36 136.95C113.59 139.86 101.28 136.74 95.87 131.33C91.68 127.14 90.95 120.43 90.39 114.79C90.01 111.05 88.5 103.61 90.7 100.19C95.04 93.47 100.42 92.59 108.15 92.15C123.66 91.27 124.74 96.12 130 101.17C131.78 102.88 132.89 104.69 134.13 106.47C137.96 111.94 138.97 117.06 138.52 117.59C134.24 124.58 128.12 133.62 120.36 136.95ZM100.17 77.54C100.96 75.54 101.64 73.84 102.09 72.76C102.81 71.02 103.42 68.62 103.91 66.21C109.58 71.3 110.65 81.42 117.62 85.02C118.77 85.61 119.93 86 121.11 86.22C119.36 86.98 117.31 87.8 115.12 88.51C108.13 88.29 102.41 84.08 100.17 77.54ZM113.4 89.02C107.29 90.78 100.47 91.46 96.1 87.92C97.31 84.81 98.65 81.38 99.81 78.45C102.11 84.33 107.17 88.25 113.4 89.02ZM101.6 72.55C99.76 77.01 94 91.84 92.51 95.68C92.12 93.13 91.25 86.08 92.66 81.27C93.37 78.86 94.36 76.46 95.5 73.68C97.18 69.6 99.25 64.55 101.36 57.25C102.73 56.07 103.95 54.94 104.75 54.04C104.78 54.63 104.84 55.38 104.93 56.2C104.58 59.44 103.21 68.65 101.6 72.55ZM139.13 117.82L139.15 117.79C143.01 125.21 149.43 130.55 157.37 133C164.55 148.25 162.06 167.67 156.14 183.38C153.1 180.33 150.1 176.63 147.88 173.02C145.04 168.38 143.31 163.11 141.46 158.01C137.71 147.62 134.61 136.92 134.01 125.92C135.86 123.32 137.45 120.57 139.13 117.82ZM156.91 183.33C163.11 168.88 165.5 148.34 158.35 132.92C158.91 132.18 159.46 131.43 160.02 130.69C160.52 131.98 162.37 136.9 163.42 142.02C164.48 147.17 165.14 157.9 165.31 160.77C165.31 161.23 165.34 161.57 165.37 161.82C165.93 170.08 161.3 176.4 157.19 183.44C157.07 183.65 156.95 183.84 156.83 184.04C156.78 184 156.74 183.95 156.69 183.9C156.77 183.75 156.84 183.5 156.91 183.33ZM147.6 87.15C148.34 87.63 149.22 88.04 150.13 88.46C152.7 89.65 155.62 90.99 157.03 94.56C159.35 100.44 163.21 114.34 162.34 119.92C161.6 124.66 160.35 128.56 159.98 129.66C157.92 132.28 156.64 132.47 153.3 130.79C151.01 129.64 148.77 128.32 146.84 126.6C143.56 123.67 141 120.29 139.11 116.29C139.1 116.27 139.09 116.26 139.07 116.24C138.4 110.77 133.72 103.32 128.26 98.09C128.02 97.56 127.81 97.02 127.65 96.47C125.88 90.4 130.87 89.19 135.62 89.49C139.16 89.7 145.66 91.16 147.6 87.15ZM141.85 83.36C143.34 83.84 144.87 84.33 146.44 86.16C146.63 86.38 146.84 86.57 147.07 86.76C144.42 93.01 131.73 85.61 127.38 91.15C126.1 92.78 126.15 94.78 126.87 96.82C123.48 93.88 119.76 91.48 116.71 91.39C101.25 90.93 96.11 92.89 92.88 96.19C93.35 94.98 94.5 92.02 95.85 88.55C102.81 93.93 115.3 89.52 122.29 86.38C128.43 87.02 134.87 83.77 140.93 83.05C141.23 83.16 141.53 83.26 141.85 83.36ZM106.85 62.74C108.64 64.95 115.13 68.06 121.41 71.07C124.98 72.78 128.36 74.4 130.73 75.77C135.02 78.26 137.02 80.08 138.35 81.28C138.91 81.79 139.37 82.19 139.83 82.5C130.85 83.87 120 90.05 113.66 80.15C110.55 75.29 108.45 69.34 104.05 65.42C104.6 62.53 104.99 59.72 105.19 58.08C105.52 59.9 106.03 61.72 106.85 62.74ZM70.51 44.62C70.5 44.65 70.13 45.31 69.45 45.22C68.41 45.09 66.76 42.11 65.77 40.33C65.28 39.44 64.85 38.66 64.48 38.14C63.42 36.62 63.45 32.84 64.55 29.35C64.73 28.79 64.96 28.49 65.26 28.43C66.02 28.29 67.36 29.51 68.07 30.41L69.15 31.77L69.02 30.03C69.01 29.88 67.92 14.49 73.35 7.98003C77.38 3.15003 86.06 2.11003 88.49 1.91003C90.92 2.11003 99.6 3.15003 103.63 7.98003C109.06 14.49 107.97 29.88 107.96 30.03L107.83 31.77L108.91 30.41C109.63 29.51 110.97 28.29 111.72 28.43C112.01 28.48 112.25 28.79 112.43 29.35C113.53 32.84 113.56 36.62 112.5 38.14C112.13 38.66 111.71 39.44 111.21 40.33C110.22 42.11 108.57 45.09 107.53 45.22C106.85 45.31 106.48 44.65 106.47 44.62L105.3 42.38L105.46 44.9C105.46 44.95 105.79 50.29 104.63 52.45C103.45 54.64 93.93 62.04 92.1 62.71C91.07 63.08 89.6 63.22 88.49 63.27C87.38 63.22 85.91 63.08 84.88 62.71C83.05 62.04 73.53 54.64 72.35 52.45C71.19 50.3 71.52 44.96 71.52 44.9L71.68 42.38L70.51 44.62ZM62.27 195.42C61.74 195.35 61.11 195.07 60.66 194.78C57.89 193.09 55.64 190.65 53.92 187.92C54 183.12 54.07 177.81 54.08 173.5C54.68 175.56 55.5 177.56 56.51 179.52C57.62 181.68 59.98 186.18 62.64 186.91C63.04 187.02 63.38 187.02 63.66 186.94C63.77 188.16 63.84 189.38 63.85 190.61C63.86 191.51 63.81 192.42 63.77 193.32C63.87 194.19 63.34 195.56 62.27 195.42ZM63.43 185.24C61.67 186.03 60.6 184.53 59.68 183.32C56.87 179.63 54.94 175.35 54.07 170.84C54.05 167.97 53.98 165.84 53.83 165.08C53.82 165.04 53.81 164.99 53.8 164.94C54.18 165.32 54.57 165.69 54.98 166.04C55.82 169.72 57.48 173.14 60.5 175.31C61.51 176.04 62.25 176.25 62.78 176.1C62.93 176.52 63.07 176.98 63.1 177.07C63.31 177.7 63.47 178.34 63.6 178.99C63.85 180.29 63.97 181.6 64.17 182.91C64.29 183.76 64.37 184.82 63.43 185.24ZM62.57 175.1C61.42 175.72 60.46 174.56 59.69 173.88C59.03 173.3 58.52 172.63 58.01 171.92C55.24 168.09 54.74 161.95 54.85 157.37C55.24 157.51 55.63 157.64 56.04 157.75C57.6 161.24 59.85 164.41 62.61 166.87C62.79 168.52 63.01 170.16 63.17 171.81C63.28 172.76 63.62 174.54 62.57 175.1ZM63.23 163.87C62.57 168.16 59.65 162.8 58.51 161.11C56.33 157.85 54.93 153.8 54.45 149.76C55.69 150.18 56.99 150.46 58.34 150.61C58.63 150.91 58.9 151.22 59.2 151.51C59.76 152.06 60.32 152.6 60.91 153.13C61.42 153.59 61.94 154.47 62.66 154.61C64.82 157 63.65 161.13 63.23 163.87ZM49.22 142.09C50.13 142.09 51.04 142.04 51.93 141.96C53.15 144.1 54.52 146.14 56.08 148.05C56.58 148.67 57.1 149.27 57.64 149.86C54.33 149.38 51.33 148 48.81 145.75L48.8 145.74C48.84 144.41 49.01 143.19 49.22 142.09ZM62.79 153.42C62.31 153.36 61.82 152.84 61.5 152.52C61.02 152.04 60.52 151.58 60.01 151.13C59.22 150.42 58.35 149.75 57.64 148.95C55.7 146.79 54.06 144.4 52.64 141.89C54.63 141.66 56.56 141.22 58.43 140.56C61.63 142.17 64.51 145.01 64.54 148.63C64.55 149.99 64.01 151.24 63.54 152.49C63.36 152.95 63.37 153.49 62.79 153.42ZM49.36 141.44C49.87 139.16 50.69 136.92 51.84 134.77C54.44 136.67 57.32 138.12 60.09 138.26C60.71 138.29 61.31 138.31 61.9 138.32C58.05 140.38 53.82 141.43 49.36 141.44ZM56.67 136.61C48.91 133.28 42.04 123.49 38.51 117.25C38.78 114.11 40.45 110.36 42.95 106.71C45.83 102.51 49.24 98.51 51.46 96.72C57.51 91.84 62.85 92.05 67.98 92.22C75.72 92.47 82.58 93.8 86.33 99.86C88.47 103.31 87.02 110.72 86.64 114.46C86.07 120.11 85.34 126.81 81.16 131C75.76 136.41 63.78 139.67 56.67 136.61ZM19.53 133.36C27.65 130.9 34.2 125.39 38.07 117.77C39.79 120.6 41.34 123.37 43.22 126C42.63 137.03 39.52 147.77 35.76 158.19C33.92 163.29 32.18 168.57 29.34 173.2C26.93 177.14 24.31 180.67 20.97 183.88C15.05 168.22 12.44 148.62 19.53 133.36ZM20 183.14C15.95 176.27 11.2 169.71 11.8 161.46C11.98 158.44 12.72 147.11 13.77 142.01C14.75 137.26 16.41 132.69 17.04 131.02C17.62 131.79 18.2 132.57 18.78 133.34C18.79 133.36 18.81 133.37 18.82 133.38C11.91 148.52 14.25 167.56 20 183.14ZM84.51 95.63C83.02 91.79 77.27 76.95 75.42 72.5C73.36 67.52 72.23 57.02 72.18 56.59C72.28 55.7 72.35 54.88 72.38 54.22C73.19 55.1 74.36 56.19 75.67 57.31C77.77 64.55 79.83 69.58 81.5 73.63C82.64 76.41 83.63 78.82 84.34 81.22C85.77 86.03 84.89 93.09 84.51 95.63ZM77.28 78.58C78.45 81.53 79.79 84.98 81 88.08C78.08 91 69.89 90.93 63.47 89.25C69.81 88.52 74.97 84.56 77.28 78.58ZM61.82 88.7L61.77 88.72C59.62 88.02 57.61 87.22 55.88 86.47C57.06 86.24 58.22 85.86 59.37 85.27C66.37 81.65 67.41 71.45 73.16 66.39C73.64 68.73 74.23 71.03 74.93 72.72C75.39 73.83 76.1 75.6 76.92 77.68C74.67 84.29 68.88 88.54 61.82 88.7ZM38.84 81.28C40.16 80.08 42.17 78.26 46.46 75.77C48.83 74.39 52.21 72.78 55.78 71.06C62.06 68.05 68.55 64.94 70.34 62.73C71.09 61.8 71.58 60.21 71.89 58.57C72.11 60.29 72.49 62.92 73.01 65.59C68.56 69.51 66.45 75.51 63.32 80.4C56.94 90.37 45.99 84.04 36.97 82.73C37.58 82.41 38.13 81.92 38.84 81.28ZM30.75 86.16C32.32 84.33 33.86 83.84 35.34 83.36C35.39 83.35 35.43 83.33 35.47 83.32L35.92 83.3C42.01 83.99 48.5 87.29 54.68 86.65C61.71 89.8 74.54 93.64 81.24 88.73C82.42 91.76 83.43 94.38 83.96 95.74C80.64 92.56 75.17 91.09 60.17 91.48C57.13 91.56 53.58 93.67 50.21 96.73C50.81 94.82 50.78 92.96 49.58 91.43C45.22 85.87 32.44 93.35 29.86 86.96C30.2 86.7 30.5 86.45 30.75 86.16ZM20.15 94.55C21.55 90.98 24.47 89.64 27.05 88.45C27.86 88.08 28.65 87.71 29.33 87.29C31.21 91.42 37.79 89.94 41.35 89.72C46.11 89.42 51.1 90.64 49.32 96.7C49.19 97.14 49.04 97.57 48.86 97.99C43.18 103.67 38.33 111.72 37.91 116.67C36.03 120.64 33.48 124 30.22 126.91C28.29 128.64 26.05 129.95 23.76 131.1C20.56 132.71 19.38 132.55 17.46 130.23L17.31 129.94C17.29 129.9 15.71 125.47 14.84 119.89C13.97 114.33 17.83 100.44 20.15 94.55ZM9.50999 131.58C9.99999 128.7 13.03 124.08 14.22 122.49C14.99 126.37 15.98 129.36 16.24 130.13C15.83 131.17 13.84 136.37 12.73 141.79C11.55 147.53 10.86 159.7 10.77 161.3C10.66 161.46 10.45 161.75 10.19 162.15C8.41999 154.87 8.22999 139.05 9.50999 131.58ZM1.66999 205.97C1.13999 197.23 3.11999 191.96 4.08999 189.95C5.21999 197.45 8.43999 204.97 11.5 211.9C15.56 221.1 18.08 231.44 18.83 241.31C18.75 243.35 18.83 244.81 19.03 246.09C11.34 236.36 4.75999 225.8 2.35999 213.6C2.07999 211.1 1.82999 208.6 1.66999 205.97ZM16.01 286.12L14.61 284.53C14.29 280.75 12.63 274.82 12.36 273.89C12.39 273.67 12.44 273.1 12.5 272.34C13.59 274.37 15.2 277.25 16.55 279.31C18.17 281.77 16.74 284.86 16.01 286.12ZM12.8 266.69C14.07 269.06 16.35 273.23 17.94 275.64C19 277.26 18.75 279.13 18.24 280.6C18.1 279.97 17.85 279.33 17.45 278.72C15.72 276.09 13.58 272.09 12.64 270.32C12.71 269.13 12.77 267.83 12.8 266.69ZM20.05 250.68C21.03 254.83 21.64 256.96 21.64 258.96C21.64 264.1 23.25 269.74 21.41 269.75C20.96 269.75 20.01 269.29 18.71 267.24C17.84 265.86 17.58 263.96 17.33 262.12C17.01 259.78 16.72 257.57 15.15 256.57C14.77 256.33 14.35 256.29 13.92 256.45C11.35 257.42 12.19 261.8 11.65 263.66L11.61 263.79L11.64 263.93C12.32 266.84 11.29 273.79 11.28 273.86L11.26 273.98L11.29 274.09C11.31 274.17 13.58 282.07 13.58 285.69C13.58 288.07 12.41 289.06 11.75 289.43C10.84 287.03 7.08999 277.03 6.62999 274.89C6.15999 272.68 5.83999 258.8 6.37999 243.43C6.71999 233.93 3.94999 225.86 2.95999 218.73C6.09999 229.27 12.24 238.59 19.18 247.28L19.22 247.34C19.46 248.45 19.74 249.36 20.05 250.68ZM22.56 223.14C22.22 224.59 22.36 223.99 21.97 225.58C20.61 229.43 19.64 232.89 19.33 235.37C19.28 235.81 19.23 236.23 19.18 236.63C18.37 230.72 16.84 223.86 14.88 218.4C11.39 208.69 5.98999 199.26 4.67999 188.92L4.68999 188.91L4.69999 188.9V180.01C4.69999 173.1 9.34999 165.38 11.08 162.75V162.74C11.01 172.15 17.68 179.63 21.85 187.84C26.93 197.85 25.09 211.66 22.71 222.4C22.61 222.84 22.62 222.82 22.56 223.14ZM30.97 197.86C30.78 202.35 27.78 210.29 24.88 217.98C24.74 218.36 24.4 219.02 24.04 219.72C25.8 211.39 26.71 202.99 24.9 194.45C24.72 193.61 24.49 192.78 24.22 191.97C25.95 189.92 27.89 188.08 30.05 186.46C30.36 187.45 31.26 190.94 30.97 197.86ZM37.99 155.22C34.94 160.06 33.18 170.12 33.1 170.66C33.1 170.72 33.27 176.7 32.75 180C32.25 183.17 30.06 185.57 30.04 185.6L29.82 185.84C27.67 187.44 25.72 189.26 23.97 191.28C23.92 191.15 23.88 191.04 23.85 190.93C23.06 188.78 22.02 186.72 20.88 184.69C24.08 181.67 27.02 178.3 29.89 173.52C32.71 168.85 33.73 165.23 35.65 160.22C39.79 149.43 43.11 138.28 43.8 126.79C43.91 126.94 44.02 127.09 44.14 127.24C44.42 130.12 44.88 134.67 45.45 139.07C45.46 139.12 45.46 139.17 45.47 139.22C44.35 142.46 40.6 151.08 37.99 155.22ZM45.37 128.73C46.91 130.51 48.99 132.61 51.32 134.38C48.86 138.96 47.81 143.92 48.18 148.84C47.05 144.43 45.96 134.56 45.37 128.73ZM49.66 153.2C49.01 150.68 48.77 148.49 48.78 146.54C50.31 147.82 51.98 148.8 53.78 149.49C54.07 152.05 54.74 154.59 55.74 157.01C53.41 156.29 51.34 154.98 49.66 153.2ZM51.55 158.65C51.52 158.57 51.47 158.44 51.4 158.29C50.83 156.93 50.38 155.65 50.01 154.44C51.26 155.58 52.69 156.49 54.25 157.14C54.24 157.16 54.23 157.19 54.23 157.21C54.16 159.65 54.28 162.34 54.76 164.94C54.29 164.5 53.84 164.03 53.41 163.55C52.97 162.24 52.27 160.58 51.55 158.65ZM48.53 206.55C48.01 202.32 50.85 197.84 52.54 195.17C52.85 194.69 53.09 194.3 53.29 193.97C60.04 197 68.15 202.31 66.33 211.29C65.82 213.79 63.63 216.47 62.08 218.35C59.92 220.98 57.9 219.77 55.64 217.98C53.68 216.43 51.75 214.84 49.82 213.25C49.47 212.15 48.96 210.09 48.53 206.55ZM43.06 257.03C44.84 249.94 46.25 244.35 46.01 240.64C45.53 233.35 47.68 223.95 49.1 218.72C53.29 223.3 52.78 230.6 51.9 236.61C50.86 243.78 49.7 254.03 42.88 257.75C42.94 257.5 43 257.26 43.06 257.03ZM35.56 299.58C36.18 291.24 38.19 279.6 40.15 270C39.51 277.48 39.71 284.04 41.41 292.92C43.11 301.78 48.5 313.94 50.54 325.11C51.31 329.31 52.01 340.05 49.95 345.99C48.59 349.93 44.57 353.14 41.15 352.22C39.62 340.37 34.16 318.59 35.56 299.58ZM37.13 419.89C35.52 408.71 33.99 398.15 34.08 393.46C34.22 385.24 39.16 372.81 40.89 368.7C41.86 371.78 43.86 375.83 45.59 379.04C45.52 391.95 45.44 404.86 45.37 417.77C45.31 429.11 47.12 442.92 40.47 452.81C40.55 451.06 40.58 449.37 40.52 448.22C40.3 441.82 38.69 430.7 37.13 419.89ZM55.96 454.57C56.03 454.95 56.11 455.32 56.18 455.68C52.32 451.31 52.27 444.67 52.24 438.72C52.24 437.85 52.23 437 52.22 436.18C52.08 428.46 52.01 421.39 52.47 414.33C53.27 417.86 55.42 423.06 61.15 425.61C58.8 434.37 55.22 450.64 55.96 454.57ZM71.11 400.28C69.32 406.22 67.07 410.94 65.26 414.73C64.17 417.01 63.23 418.98 62.57 420.81C62.29 421.59 61.9 422.88 61.45 424.51C55.66 421.84 53.42 415.94 52.6 412.62C52.65 412 52.69 411.39 52.75 410.77C52.9 409.2 52.99 407.58 53.09 405.88C53.35 401.4 53.48 396.81 54.87 392.5C55.92 389.24 57.58 386.19 59.51 383.38C61.46 380.54 63.88 378.11 65.91 375.33C67.09 373.71 68.19 372.03 69.22 370.31C70.23 375.23 73.49 392.39 71.11 400.28ZM75.58 352.76C74.76 357.23 72.7 361.58 70.63 365.59C69.41 367.95 68.2 370.68 66.47 372.71C61.72 378.29 56.58 383.68 54.27 390.8C52.68 395.69 52.31 400.72 52.02 405.83C51.92 407.53 51.83 409.13 51.68 410.69C50.91 419.01 50.99 427.17 51.16 436.22C51.18 437.04 51.18 437.88 51.18 438.75C51.21 445.48 51.24 453.07 56.63 457.67C56.78 458.27 56.92 458.84 57.07 459.37C57.66 462.37 58.6 469.02 58.94 470.52C59.35 472.31 59.29 473.54 57.85 475.66C56.62 477.47 54.78 478.9 53.2 479.8C54.41 477.85 56.5 474.47 56.5 474.47C54.92 476.14 51.7 480.54 51.64 480.64C51.04 481.39 48.27 486 47.68 490.21C47.1 494.31 44.94 498.85 41.01 500.07L40.96 500.09C40.09 500.47 38.46 501.17 37.45 503.69C36.56 505.9 34.14 507.56 32.2 508.05C30.18 508.57 27.57 507.57 26.61 505.91L26.58 505.86C26.43 505.06 26.56 504.77 26.88 504.47C26.97 504.39 27.12 504.25 27.32 504.08C28.62 502.93 30.04 501.63 30.42 500.88C30.77 500.19 33.51 495.72 35.65 493.98C35.65 493.98 32.22 495.77 29.63 500.48C29.27 501.13 27.5 502.74 26.73 503.42C26.52 503.6 26.36 503.75 26.27 503.83C25.71 504.36 25.54 504.96 25.69 505.91C25.3 506.1 25.06 506.16 24.36 505.83C23.76 505.55 23.59 504.77 23.54 504.19C23.54 504.16 23.82 500.58 30.2 492.46C30.2 492.46 28.11 494.12 26.3 496.82C23.95 500.33 23.08 502.21 22.78 503.23C22.35 503.27 21.79 503.25 21.58 503.09C21.15 502.77 20.65 502.02 20.85 501.45C20.92 501.23 20.98 501.05 21.03 500.91C21.78 498.31 24.49 492.36 26.79 489.74C26.79 489.74 25.45 490.66 23.79 493.26C22.13 495.86 21.2 497.54 20.47 499.71C20.12 499.67 19.91 499.55 19.63 499.32C19.5 499.2 19.32 498.47 19.34 497.45C19.35 497.16 19.39 496.84 19.44 496.49C19.5 496.06 19.56 495.62 19.55 495.21C19.55 495.1 19.54 494.99 19.52 494.89C19.88 493.4 20.94 490.73 23.73 487.43C23.73 487.43 22.4 488.55 21.28 490.07C20.28 491.44 19.52 492.5 19.04 493.58C18.99 493.42 18.95 493.26 18.92 493.06C18.9 492.89 18.86 492.7 18.83 492.49C18.66 491.51 18.43 490.18 19.06 489.5C19.06 489.5 21.45 485.93 22.38 485.35C23.74 484.5 33.06 476.85 34.21 474.16C34.49 473.5 34.74 472.8 34.98 472.11C35.69 470.08 36.43 467.99 38.17 466.5C40.66 464.38 42.44 459.05 42.44 459.05C42.43 459.07 40.79 462.19 38.93 464.43C39.02 462.79 39.4 461.6 39.84 460.27C39.98 459.83 40.25 456.99 40.41 454.02C46.86 444.96 45.92 432.58 45.98 422.01C46.06 408.08 46.14 394.16 46.22 380.23C47.51 382.58 48.52 384.27 48.61 384.41C48.61 384.41 41.72 370.8 41.38 366C41.18 363.21 41.38 361.73 41.55 360.42C41.68 359.41 41.81 358.45 41.73 357.1C41.7 356.61 41.52 355.18 41.25 353.02C43.79 353.57 46.59 352.1 48.78 349.42C52.84 344.46 52.63 335.5 51.84 328.62C52.79 328.94 53.85 328.9 54.77 328.44C54.72 330.19 54.82 331.96 55.11 333.75C56.01 339.31 58.41 345.4 63.25 348.73C67.12 351.39 72 352.81 75.97 350.2C75.84 351.18 75.71 352.04 75.58 352.76ZM77.53 333.9C77.04 339.76 76.57 345.37 76.07 349.37C69.57 354.45 61.53 347.5 58.3 341.81C54.8 335.64 55.14 328.23 56.65 321.57C59.43 309.35 67.32 299.02 70.79 287C72.94 292.04 74.83 297.18 75.85 302.62C77.24 309.98 77.89 317.43 78.3 324.89C78.03 327.93 77.77 331 77.53 333.9ZM79.67 311.92C79.31 314.71 78.98 317.8 78.67 320.98C77.79 309.04 75.97 297.27 71.1 286.05C63.02 267.45 55.18 249.34 54.79 228.7C54.77 227.38 54.86 226.15 55.12 224.84C56.24 219.2 60.46 227.49 60.58 227.72C61.84 230.12 63.21 231.84 63.53 234.66C63.68 235.99 63.81 237.24 64.09 238.56C66.05 247.73 67.75 256.62 71.04 265.45C72.55 269.5 74.56 273.33 76.03 277.39C77.68 281.96 78.39 286.98 79.16 291.75C79.93 296.54 80.37 301.36 80.52 306.2C80.21 308.14 79.91 310.06 79.67 311.92ZM87.07 275.51C86.75 278.06 85.74 282.36 84.57 287.33C83.42 292.25 82.08 297.97 81 303.65C80.78 299.63 80.38 295.6 79.79 291.58C79 286.15 77.91 280.68 76.04 275.52C74.14 270.27 71.57 265.29 69.78 259.97C66.66 250.73 65.79 241.23 63.69 231.81C63.04 228.88 60.45 225.63 58.82 223.16C58.34 222.44 56.89 221.82 56.09 222.39C52.02 225.29 54.41 235.18 54.86 239.01C56.13 249.84 59.55 260.34 63.55 270.44C65.64 275.71 68.14 280.84 70.39 286.04C66.62 299.72 55.59 313.13 54.8 327.63C53.88 328.26 52.73 328.33 51.76 327.91C51.65 327.01 51.53 326.15 51.42 325.35C49.75 313.84 44.01 300.34 42.08 291.32C40.25 282.81 40.28 273.78 41.21 264.97C41.73 262.57 42.23 260.39 42.67 258.57C50.41 254.91 51.24 244.48 52.51 236.77C53.55 230.43 53.88 222.68 49.29 217.98C49.84 216.01 50.23 214.78 50.25 214.74L50.32 214.52L50.31 214.51C53.12 216.86 55.94 219.26 58.98 221.27C59.12 221.36 59.26 221.42 59.4 221.46C61.56 224.57 63.57 228.55 66.02 233.43C68.1 237.59 70.47 242.31 73.44 247.47C74.28 248.93 74.98 250.56 75.71 252.29C77.82 257.24 80.18 262.78 86.69 263.68C87.01 265.58 87.7 270.6 87.07 275.51ZM88.9 262.75C88.86 262.75 88.57 262.75 88.57 262.75C81.32 262.74 79.07 257.47 76.69 251.88C75.97 250.2 75.24 248.46 74.36 246.95C71.4 241.82 69.04 237.11 66.97 232.96C64.62 228.27 62.68 224.4 60.59 221.3C62.91 220.18 65.56 214.99 66.26 213.77C68.89 209.21 66.9 203.73 63.88 199.82C61.62 196.89 57.24 194.44 53.8 192.88C53.83 192.78 53.84 192.68 53.84 192.6C53.84 192.4 53.85 191.6 53.88 190.41C53.89 189.96 53.9 189.5 53.9 189.04C54.89 190.49 56.02 191.83 57.33 193.06C58.56 194.21 61.1 196.63 62.84 196.66C64.23 196.68 64.22 195.34 64.32 194.24C64.56 191.69 64.5 189.12 64.26 186.58C64.8 185.99 64.93 184.91 64.92 184.02C64.9 180.88 64.36 178.34 63.29 175.8C64.59 174.43 63.71 169.45 63.3 166.9C63.3 166.89 63.31 166.89 63.31 166.89C64.02 163.34 65.79 157.72 63.37 154.5C63.8 154.2 63.93 153.5 64.14 153.02C64.81 151.43 65.45 149.29 65.18 147.55C64.69 144.38 62.1 141.84 59.24 140.29C60.62 139.76 61.96 139.12 63.26 138.35C71.5 138.2 77.42 135.69 82.5 130.61C86.36 126.75 86.71 119.57 87.3 114.49C87.81 110.04 89.11 103 86.5 98.95C85.98 98.15 85.46 97.41 84.89 96.73C84.96 96.33 86.66 87.16 84.88 81.11C84.16 78.68 83.17 76.26 82.02 73.46C80.42 69.56 78.44 64.77 76.43 57.96C79.62 60.62 83.33 63.3 84.53 63.73C85.48 64.08 86.73 64.24 87.8 64.32H89.22C90.29 64.24 91.53 64.08 92.48 63.73C93.69 63.29 97.44 60.58 100.65 57.9C98.63 64.76 96.64 69.59 95.03 73.51C93.88 76.31 92.89 78.72 92.17 81.16C90.39 87.21 92.09 96.39 92.16 96.78C92.16 96.78 91.1 98.46 90.56 99.29C87.94 103.34 89.25 110.38 89.76 114.83C90.34 119.91 90.69 127.09 94.56 130.95C99.86 136.25 106.07 138.76 114.89 138.7C115.84 139.2 116.81 139.65 117.8 140.03C114.93 141.58 112.32 144.13 111.83 147.31C111.56 149.05 112.2 151.19 112.87 152.78C113.07 153.26 113.21 153.96 113.64 154.26C111.21 157.48 112.98 163.11 113.7 166.65C113.7 166.66 113.71 166.66 113.71 166.67C113.3 169.23 112.42 174.2 113.72 175.57C112.65 178.11 112.11 180.65 112.09 183.79C112.08 184.68 112.21 185.76 112.75 186.35C112.51 188.9 112.45 191.46 112.69 194.01C112.79 195.11 112.79 196.45 114.18 196.43C115.92 196.4 118.46 193.98 119.69 192.83C121.18 191.43 122.44 189.88 123.53 188.18C123.54 188.9 123.55 189.6 123.57 190.29C123.59 191.49 123.61 192.28 123.61 192.48C123.61 192.57 123.63 192.67 123.66 192.78C120.19 194.32 115.73 196.7 113.41 199.71C110.39 203.63 108.09 209.1 110.72 213.66C111.44 214.91 114.37 220.44 116.79 221.39C114.72 224.48 112.78 228.33 110.45 232.99C108.37 237.14 106.02 241.85 103.06 246.98C102.18 248.5 101.44 250.23 100.73 251.91C98.3 257.44 96.07 262.69 88.9 262.75ZM98.66 320.86C98.36 317.72 98.03 314.68 97.68 311.92C97.44 310.04 97.14 308.11 96.8 306.15C96.95 301.24 97.38 296.33 98.17 291.46C98.94 286.69 99.65 281.67 101.3 277.1C102.77 273.04 104.78 269.2 106.29 265.16C109.59 256.33 111.28 247.43 113.24 238.27C113.52 236.95 113.65 235.71 113.8 234.37C114.12 231.54 115.49 229.83 116.75 227.43C116.87 227.2 121.09 218.91 122.21 224.55C122.47 225.86 122.57 227.09 122.54 228.41C122.15 249.05 114.31 267.16 106.23 285.76C101.35 297.04 99.54 308.86 98.66 320.86ZM99.82 333.9C99.57 330.96 99.31 327.86 99.03 324.77C99.44 317.25 100.09 309.74 101.49 302.32C102.51 296.92 104.38 291.82 106.51 286.81C109.99 298.81 117.92 309.36 120.7 321.57C122.22 328.23 122.55 335.64 119.05 341.81C115.82 347.5 107.77 354.45 101.28 349.37C100.78 345.38 100.31 339.76 99.82 333.9ZM114.77 420.81C114.11 418.98 113.17 417.01 112.08 414.73C110.27 410.94 108.02 406.22 106.23 400.28C103.85 392.39 107.11 375.23 108.13 370.31C109.16 372.03 110.27 373.72 111.44 375.33C113.46 378.1 115.89 380.54 117.84 383.38C119.77 386.2 121.43 389.24 122.48 392.5C123.87 396.81 124 401.39 124.26 405.88C124.36 407.59 124.45 409.2 124.6 410.77C124.65 411.32 124.69 411.86 124.73 412.41C124.19 414.67 122.97 418.28 120.32 421.19C119.14 422.48 117.69 423.63 115.88 424.47C115.44 422.86 115.05 421.59 114.77 420.81ZM116.18 425.57C118.28 424.63 119.89 423.33 121.14 421.88C123.34 419.32 124.38 416.32 124.86 414.08C125.34 421.22 125.26 428.37 125.12 436.18C125.1 437.01 125.1 437.86 125.1 438.72C125.08 444.67 125.03 451.31 121.16 455.68C121.24 455.32 121.31 454.95 121.38 454.57C122.12 450.63 118.53 434.32 116.18 425.57ZM138.41 464.42C136.55 462.17 134.91 459.05 134.9 459.04C134.9 459.04 136.68 464.36 139.17 466.49C140.91 467.97 141.65 470.07 142.36 472.1C142.6 472.78 142.85 473.49 143.13 474.15C144.28 476.84 153.6 484.49 154.96 485.34C155.88 485.92 158.28 489.49 158.28 489.49C158.92 490.17 158.68 491.51 158.51 492.48C158.47 492.69 158.44 492.88 158.42 493.05C158.39 493.24 158.35 493.41 158.31 493.56C157.83 492.47 157.06 491.4 156.05 490.01C154.93 488.49 153.6 487.37 153.6 487.37C156.43 490.71 157.47 493.41 157.83 494.89C157.81 494.99 157.8 495.1 157.8 495.21C157.79 495.62 157.85 496.06 157.91 496.49C157.96 496.84 158 497.16 158.01 497.45C158.03 498.47 157.85 499.2 157.72 499.32C157.45 499.54 157.24 499.66 156.89 499.71C156.16 497.51 155.23 495.82 153.55 493.2C151.89 490.61 150.55 489.68 150.55 489.68C152.8 492.24 155.43 497.99 156.25 500.67C156.3 500.85 156.38 501.09 156.51 501.45C156.7 502.02 156.21 502.77 155.78 503.09C155.6 503.22 155.16 503.26 154.77 503.24C154.64 502.4 153.97 500.53 151.13 496.3C149.32 493.6 147.23 491.94 147.23 491.94C152.61 498.78 153.66 502.4 153.85 503.39L153.84 503.69C153.83 504.17 153.81 505.44 153 505.83C152.3 506.16 152.06 506.1 151.67 505.91C151.82 504.96 151.65 504.36 151.09 503.83C151 503.74 150.84 503.6 150.63 503.42C149.86 502.74 148.09 501.13 147.73 500.48C145.14 495.77 141.71 493.98 141.71 493.98C143.85 495.72 146.58 500.19 146.94 500.88C147.32 501.63 148.74 502.93 150.04 504.08C150.24 504.26 150.39 504.39 150.48 504.47C150.8 504.77 150.92 505.07 150.78 505.86L150.75 505.91C149.79 507.56 147.18 508.56 145.16 508.05C143.23 507.56 140.8 505.9 139.91 503.69C138.9 501.17 137.27 500.47 136.4 500.09L136.35 500.07C132.42 498.85 130.26 494.31 129.68 490.21C129.09 486 126.32 481.39 125.72 480.64C125.65 480.54 122.44 476.14 120.86 474.47C120.86 474.47 122.95 477.85 124.16 479.8C122.58 478.9 120.74 477.47 119.51 475.66C118.06 473.54 118.01 472.31 118.42 470.52C118.76 469.02 119.7 462.37 120.29 459.37C120.44 458.85 120.58 458.27 120.73 457.67C126.12 453.08 126.15 445.49 126.18 438.75C126.18 437.89 126.19 437.04 126.2 436.22C126.37 427.18 126.44 419.01 125.68 410.69C125.54 409.13 125.44 407.53 125.34 405.83C125.04 400.73 124.67 395.7 123.09 390.8C120.78 383.68 115.64 378.29 110.89 372.71C109.16 370.68 107.95 367.94 106.73 365.59C104.66 361.58 102.6 357.24 101.78 352.76C101.65 352.04 101.52 351.18 101.39 350.21C105.36 352.81 110.25 351.39 114.11 348.74C118.95 345.41 121.72 339.37 122.25 333.76C122.43 331.83 122.46 329.96 122.37 328.14C123.29 328.62 124.4 328.69 125.39 328.42C124.57 335.35 124.28 344.54 128.41 349.59C130.66 352.34 133.55 353.81 136.13 353.14C135.87 355.15 135.71 356.48 135.68 356.95C135.6 358.3 135.73 359.26 135.86 360.27C136.03 361.58 136.23 363.06 136.03 365.85C135.69 370.65 128.8 384.26 128.8 384.26C128.89 384.11 129.87 382.47 131.13 380.18C131.21 394.12 131.29 408.06 131.37 422C131.43 432.57 130.49 444.94 136.94 454.01C137.1 456.98 137.37 459.82 137.51 460.26C137.94 461.58 138.32 462.77 138.41 464.42ZM143.27 393.46C143.35 398.15 141.83 408.71 140.22 419.89C138.66 430.7 137.06 441.82 136.84 448.23C136.78 449.38 136.81 451.07 136.89 452.82C130.24 442.93 132.06 429.12 131.99 417.78C131.92 404.86 131.84 391.93 131.77 379.01C133.48 375.83 135.47 371.81 136.47 368.72C138.19 372.84 143.12 385.25 143.27 393.46ZM141.84 299.43C143.25 318.48 137.76 340.33 136.24 352.15C136.23 352.21 136.23 352.26 136.22 352.32C132.76 353.42 128.61 350.16 127.22 346.15C125.17 340.21 125.87 329.47 126.63 325.27C128.67 314.1 134.06 301.94 135.76 293.08C137.56 283.64 137.69 276.49 136.91 268.22C138.97 278.11 141.19 290.62 141.84 299.43ZM135.63 262.32C136.87 272.01 137.12 282.08 135.1 291.5C133.16 300.52 127.43 314.02 125.76 325.53C125.66 326.25 125.55 327.02 125.45 327.83C124.43 328.18 123.22 328.07 122.31 327.42C121.2 311.64 110.7 299.66 106.91 285.86C109.17 280.62 111.69 275.47 113.79 270.16C117.79 260.06 121.21 249.56 122.48 238.73C122.93 234.91 125.32 225.02 121.25 222.11C120.45 221.54 118.99 222.16 118.52 222.88C116.89 225.34 114.3 228.6 113.65 231.53C111.56 240.96 110.68 250.45 107.56 259.69C105.77 265.01 103.2 269.99 101.3 275.24C99.43 280.4 98.34 285.87 97.55 291.3C96.95 295.41 96.55 299.51 96.33 303.61C95.26 297.95 93.92 292.25 92.77 287.34C91.6 282.36 90.6 278.07 90.27 275.52C89.64 270.61 90.34 265.58 90.65 263.7C97.17 262.81 99.54 257.26 101.65 252.31C102.39 250.58 103.08 248.95 103.92 247.49C106.9 242.33 109.26 237.61 111.34 233.45C113.82 228.5 115.85 224.46 118.05 221.34C118.09 221.32 118.12 221.31 118.16 221.28C121.28 219.21 124.17 216.74 127.06 214.32L127.14 214.61C127.15 214.65 127.56 215.9 128.11 217.92C123.44 222.62 123.76 230.42 124.81 236.79C126.08 244.53 126.92 255.01 134.75 258.63C135.04 259.73 135.33 260.98 135.63 262.32ZM128.32 218.63C129.73 223.87 131.86 233.23 131.39 240.49C131.15 244.2 132.56 249.8 134.34 256.88C134.41 257.18 134.49 257.49 134.57 257.81C127.66 254.14 126.49 243.82 125.44 236.61C124.57 230.56 124.05 223.21 128.32 218.63ZM124.86 195.02C126.56 197.69 129.4 202.17 128.87 206.4C128.26 211.32 127.72 212.56 127.42 213.16C125.46 214.78 123.5 216.39 121.51 217.96C119.25 219.75 117.23 220.96 115.07 218.33C113.52 216.45 111.34 213.77 110.82 211.27C108.95 202.15 117.3 196.83 124.12 193.83C124.32 194.16 124.56 194.54 124.86 195.02ZM126.4 156.61C125.58 158.77 124.78 160.85 124.23 162.52C123.61 163.29 122.93 164.01 122.22 164.7C122.7 162.1 122.82 159.41 122.75 156.97C122.75 156.94 122.74 156.92 122.73 156.89C124.52 156.14 126.13 155.06 127.51 153.66C127.15 154.64 126.77 155.63 126.4 156.61ZM127.79 152.43C126.04 154.48 123.79 155.97 121.24 156.77C122.23 154.38 122.9 152.02 123.19 149.51C124.99 148.81 126.67 147.82 128.2 146.54C128.21 148.8 128.02 151.02 127.79 152.43ZM129.02 149.54C129.01 149.56 128.85 150.11 128.56 150.92C129.18 145.31 128.4 139.41 125.93 134.53C128.19 132.75 130.2 130.67 131.7 128.92C131.82 128.78 131.92 128.64 132.04 128.51C131.42 134.8 130.25 145.85 129.02 149.54ZM144.35 179.76C143.97 169.38 142.16 159.83 139.11 154.98C136.56 150.92 133.03 142.95 131.85 139.63C131.85 139.62 131.85 139.6 131.84 139.56C132.45 134.92 132.98 129.94 133.27 126.94C133.33 126.87 133.38 126.79 133.44 126.72C134.15 138.15 137.46 149.28 141.58 160.02C143.5 165.04 144.53 168.65 147.34 173.32C150.06 177.83 153.58 181.54 156.58 184.44C155.18 186.81 154.17 188.72 153.29 191.22C151.54 189.21 149.12 186.87 147.02 185.3C146.7 185 144.46 182.75 144.35 179.76ZM153.12 220.11C152.83 219.33 152.53 218.53 152.23 217.74C149.33 210.05 146.32 202.11 146.14 197.62C145.85 190.75 146.74 187.26 147.06 186.24C149.2 187.84 151.33 189.86 153.07 191.9C152.79 192.76 152.52 193.7 152.25 194.75C150.1 203.3 151.56 212.14 153.15 220.16C153.13 220.15 153.13 220.13 153.12 220.11ZM154.95 225.09C152.04 213.23 149.65 199.33 155.33 188.15C159.55 179.83 166.31 172.25 166.06 162.66C167.74 165.21 172.49 173.02 172.49 180.01V188.04C171.43 198.82 165.8 207.92 162.19 217.95C160.05 223.9 158.62 229.94 157.89 236.11C157.85 235.79 157.83 235.47 157.77 235.13C157.04 230.82 155.93 227.64 154.95 225.09ZM158.95 280.61C158.45 279.15 158.19 277.27 159.25 275.65C160.83 273.23 163.11 269.07 164.39 266.7C164.42 267.84 164.48 269.15 164.55 270.33C163.61 272.11 161.47 276.1 159.74 278.73C159.34 279.34 159.09 279.98 158.95 280.61ZM161.17 286.13C160.44 284.86 159.01 281.78 160.63 279.32C161.98 277.26 163.58 274.38 164.68 272.35C164.74 273.11 164.79 273.68 164.82 273.9C164.56 274.82 162.9 280.76 162.57 284.54L161.17 286.13ZM174.3 218.04C173.41 225.35 170.44 233.63 170.79 243.44C171.33 258.81 171.01 272.69 170.54 274.9C170.08 277.04 166.33 287.03 165.42 289.44C164.76 289.07 163.59 288.08 163.59 285.7C163.59 282.08 165.86 274.17 165.88 274.1L165.91 273.99L165.89 273.87C165.88 273.8 164.84 266.85 165.53 263.94L165.56 263.8L165.52 263.67C164.98 261.81 165.82 257.42 163.25 256.46C162.82 256.3 162.4 256.34 162.02 256.58C160.46 257.58 160.16 259.79 159.84 262.13C159.59 263.97 159.33 265.88 158.46 267.25C157.16 269.3 156.22 269.76 155.76 269.76C153.92 269.75 155.53 264.11 155.53 258.97C155.53 256.98 156.14 254.84 157.12 250.69C157.47 249.19 157.8 248.03 158.03 246.76C165.13 237.84 171.36 228.26 174.37 217.36C174.36 217.59 174.33 217.81 174.3 218.04ZM175.52 205.98C175.42 207.62 175.15 209.43 175 211.01C173.09 224.16 166.35 235.18 158.24 245.49C158.41 243.98 158.44 242.15 158.23 239.42C159.03 229.73 161.58 220.5 165.57 211.45C168.7 204.37 171.88 197.35 172.95 189.68C173.84 191.43 176.07 196.78 175.52 205.98Z" fill="black"/>
<path d="M84.33 185.45C80.47 186.62 76.64 187.84 72.8 189.08C68.02 190.62 67.02 186.91 66.99 184.05C66.95 181.31 68.45 178.78 70.21 176.74C73.16 173.33 78.22 172.26 82.61 171.99C87.78 171.68 89.35 183.76 84.33 185.45ZM86.98 173.38C84.17 168.72 75.1 172.42 71.69 174.62C67.89 177.07 64.67 183.25 66.97 187.54C68.04 189.53 69.34 190.18 71.65 190C73.31 189.87 75.03 189.01 76.58 188.48C79.19 187.6 81.87 186.87 84.51 186.07C85.98 185.57 87.83 184.85 87.97 183.09C88.17 180.57 88.35 175.66 86.98 173.38Z" fill="black"/>
<path d="M92.65 185.52C87.63 183.83 89.2 171.74 94.37 172.06C98.75 172.32 103.81 173.39 106.77 176.81C108.53 178.85 110.03 181.38 109.99 184.12C109.95 186.99 108.96 190.69 104.18 189.15C100.34 187.91 96.5 186.69 92.65 185.52ZM90 173.44C88.63 175.72 88.81 180.64 89 183.15C89.14 184.91 90.99 185.63 92.46 186.13C95.1 186.93 97.78 187.66 100.39 188.54C101.95 189.06 103.66 189.93 105.32 190.06C107.63 190.24 108.93 189.6 110 187.6C112.3 183.31 109.08 177.13 105.28 174.68C101.88 172.48 92.81 168.78 90 173.44Z" fill="black"/>
<path d="M85.79 218.96C85.67 223.06 85.55 227.15 85.43 231.25C85.23 237.86 77.6 231.11 75.92 229.19C71.19 222.21 69.92 213.04 68.35 204.91C67.06 198.22 69.24 192.8 76.08 190.73C80.89 189.27 86.06 189.14 86.43 195.41C86.89 203.16 86.02 211.19 85.79 218.96ZM86.28 190.71C81.9 185.77 71.11 191.05 68.57 195.23C65.81 199.76 67.99 206.6 68.96 211.14C70.32 217.51 71.67 224.08 75.38 229.54L75.41 229.57L75.43 229.61C77.76 232.3 81.11 234.58 84.68 235.18C87.08 235.59 86.16 228.03 86.18 227.15C86.4 219.64 87.08 212.13 87.25 204.62C87.3 202.83 88.78 193.53 86.28 190.71Z" fill="black"/>
<path d="M90.55 195.4C90.92 189.13 96.09 189.27 100.9 190.72C107.75 192.79 109.92 198.21 108.63 204.9C107.06 213.03 105.79 222.2 101.06 229.18C99.38 231.09 91.75 237.85 91.55 231.24C91.43 227.14 91.31 223.05 91.18 218.95C90.96 211.19 90.09 203.16 90.55 195.4ZM90.79 227.15C90.82 228.02 89.89 235.58 92.29 235.18C95.86 234.58 99.21 232.3 101.54 229.61L101.56 229.57L101.59 229.54C105.3 224.08 106.66 217.51 108.01 211.14C108.98 206.6 110.55 200.08 108.4 195.23C106.55 191.06 95.62 185.8 90.83 190.77C88.11 193.58 89.61 201.17 89.71 204.62" fill="black"/>
</svg>
